/* XPM */
static char *_e4638cfbb1a4537c90e4bc401d0ecda9vzsU0Zfl0TH5bTk[] = {
/* columns rows colors chars-per-pixel */
"64 64 236 2 ",
"   c #3E3B76",
".  c #563C54",
"X  c #5A3D57",
"o  c #5D3E59",
"O  c #5E3C42",
"+  c #633D44",
"@  c #613C5E",
"#  c #413D72",
"$  c #653E60",
"%  c #387452",
"&  c #3D656C",
"*  c #3C4443",
"=  c #5F4159",
"-  c #5A4257",
";  c #575750",
":  c #694346",
">  c #774449",
",  c #65435C",
"<  c #69455E",
"1  c #64465B",
"2  c #78475C",
"3  c #5E615E",
"4  c #4C7C5F",
"5  c #586E53",
"6  c #736E58",
"7  c #494675",
"8  c #6B4962",
"9  c #794D63",
"0  c #6C5568",
"q  c #73556B",
"w  c #745B6E",
"e  c #79596F",
"r  c #785266",
"t  c #7A5B71",
"y  c #4D7D60",
"u  c #567869",
"i  c #75666B",
"p  c #7B6775",
"a  c #797976",
"s  c #6E776D",
"d  c #5F3C3F",
"f  c #8A474B",
"g  c #894A5D",
"h  c #87495A",
"j  c #944954",
"k  c #9B4B54",
"l  c #9B4C59",
"z  c #954853",
"x  c #93565E",
"c  c #975456",
"v  c #955052",
"b  c #A44D52",
"n  c #AB4C55",
"m  c #A44F59",
"M  c #B44E57",
"N  c #AD5254",
"B  c #A75159",
"V  c #A9525A",
"C  c #A75457",
"Z  c #B25456",
"A  c #BB535B",
"S  c #BB5A5B",
"D  c #B55759",
"F  c #866658",
"G  c #8A5563",
"H  c #915A61",
"J  c #9C5964",
"K  c #8A4F60",
"L  c #BB5C61",
"P  c #AB5B64",
"I  c #88686A",
"U  c #837369",
"Y  c #836979",
"T  c #867675",
"R  c #997271",
"E  c #B26C6F",
"W  c #BB605E",
"Q  c #C45B5B",
"!  c #CC5F5D",
"~  c #C2565E",
"^  c #CE605E",
"/  c #C7615F",
"(  c #D0615F",
")  c #C15D63",
"_  c #C36263",
"`  c #CD6361",
"'  c #C86969",
"]  c #D16563",
"[  c #D36A67",
"{  c #D6716D",
"}  c #D67A77",
"|  c #C86D72",
" . c #4B885D",
".. c #5B835C",
"X. c #4D8663",
"o. c #548765",
"O. c #4C9668",
"+. c #52966D",
"@. c #539A72",
"#. c #7C857B",
"$. c #6D956F",
"%. c #4AA96B",
"&. c #49B875",
"*. c #54B171",
"=. c #59B573",
"-. c #54AD70",
";. c #6AAA74",
":. c #69B676",
">. c #6CA772",
",. c #708A5F",
"<. c #49C778",
"1. c #53D17D",
"2. c #64C77E",
"3. c #3FA96B",
"4. c #83847D",
"5. c #86887C",
"6. c #9D8677",
"7. c #AD8978",
"8. c #D8817C",
"9. c #3D6789",
"0. c #4F4D87",
"q. c #446B8B",
"w. c #476B89",
"e. c #45718E",
"r. c #4A738E",
"t. c #51758E",
"y. c #547A90",
"u. c #597E92",
"i. c #537490",
"p. c #4D7691",
"a. c #6D788A",
"s. c #8F7984",
"d. c #AC7D82",
"f. c #5E8194",
"g. c #7F8B8E",
"h. c #78808F",
"j. c #6C8A95",
"k. c #648493",
"l. c #758E96",
"z. c #789197",
"x. c #709185",
"c. c #74B583",
"v. c #58DB84",
"b. c #4CDC81",
"n. c #6ACD88",
"m. c #47EF87",
"M. c #47EE8A",
"N. c #4AEE8B",
"B. c #4DE586",
"V. c #51E787",
"C. c #4FF78F",
"Z. c #4EF68E",
"A. c #4DF58D",
"S. c #4EF68E",
"D. c #51F38E",
"F. c #48EC92",
"G. c #47EB90",
"H. c #4CF290",
"J. c #53F692",
"K. c #5CF597",
"L. c #66F79E",
"P. c #878A86",
"I. c #95868B",
"U. c #95988B",
"Y. c #9C8B93",
"T. c #9A8794",
"R. c #86969B",
"E. c #859A9A",
"W. c #8B9D9B",
"Q. c #8B9494",
"!. c #989993",
"~. c #878D8D",
"^. c #A29C8F",
"/. c #A69588",
"(. c #A18A96",
"). c #A78F9C",
"_. c #A59998",
"`. c #B49895",
"'. c #B58D89",
"]. c #8EA29C",
"[. c #95A399",
"{. c #90AA8A",
"}. c #ABA395",
"|. c #A9A69A",
" X c #B3A799",
".X c #97A8A8",
"XX c #9CB2AD",
"oX c #9EB4B0",
"OX c #A7A9A4",
"+X c #B3ADA1",
"@X c #B8ABA7",
"#X c #A7B4AC",
"$X c #B4B1A5",
"%X c #B5B4AB",
"&X c #BBB5AC",
"*X c #BBB9AE",
"=X c #B9B1A6",
"-X c #AEB9B3",
";X c #BDBDB3",
":X c #B4B9BD",
">X c #B7BAB6",
",X c #BDABB3",
"<X c #AD9FA4",
"1X c #D88786",
"2X c #CF8F8F",
"3X c #CAB7AA",
"4X c #C1BEB5",
"5X c #C9B7B8",
"6X c #D7BAB5",
"7X c #CEAEAA",
"8X c #E3B2B0",
"9X c #CEA79C",
"0X c #BFC0B7",
"qX c #BCC2BB",
"wX c #C2C4BC",
"eX c #C5C2B8",
"rX c #D6C3BA",
"tX c #E7C2BF",
"yX c #D4BDC0",
"uX c #CCC6C3",
"iX c #CDCAC4",
"pX c #CECDC8",
"aX c #C3C4C2",
"sX c #DDCCC4",
"dX c #D5CCC6",
"fX c #D9D2CC",
"gX c #DED9D4",
"hX c #E6C9C5",
"jX c #E3D3CC",
"kX c #E8D1CD",
"lX c #E5DDDA",
"zX c #E6DAD5",
"xX c #E9E1DE",
"cX c #F0E1DD",
"vX c #E8E3E1",
"bX c #F4EAE7",
/* pixels */
"C.C.C.C.C.C.C.C.C.C.C.C.C.C.C.C.C.C.C.C.C.C.C.C.C.C.C.C.C.C.C.C.A.A.A.A.C.C.C.C.C.C.C.C.C.C.C.C.C.C.C.C.C.C.C.C.C.C.C.C.C.C.C.C.",
"C.C.C.C.C.C.C.C.C.C.C.C.C.C.C.C.C.C.C.C.C.C.C.C.C.C.C.C.C.C.C.C.A.A.A.A.A.C.C.C.C.C.C.C.C.C.C.C.C.C.C.C.C.C.C.C.C.C.C.C.C.C.C.C.",
"C.C.C.C.C.C.C.C.C.C.C.C.C.C.C.C.C.C.C.C.D.C.C.C.C.C.C.C.C.C.C.C.A.A.A.A.A.C.C.C.C.C.C.C.C.C.C.C.C.C.C.C.C.C.C.C.C.C.C.C.C.C.C.C.",
"C.C.C.C.C.C.C.C.C.C.C.C.C.C.C.C.C.C.C.C.D.D.D.C.C.C.C.C.C.C.C.C.D.D.D.D.A.A.C.C.C.C.C.C.C.C.C.C.C.C.C.C.C.C.C.C.C.C.C.C.C.C.C.C.",
"C.C.C.C.C.C.C.C.C.C.C.C.C.C.C.C.C.C.C.C.C.C.C.C.C.C.C.C.A.A.A.A.J.K.K.J.A.A.A.C.C.C.C.C.C.C.C.C.A.A.A.C.C.C.C.C.C.C.C.C.C.C.C.C.",
"C.C.D.C.C.C.C.C.C.C.C.C.C.C.C.C.C.C.C.C.D.D.C.C.C.C.C.A.A.A.A.D.K.K.K.K.D.A.A.A.C.C.C.C.C.C.C.C.A.A.A.A.C.C.C.C.C.C.C.C.C.C.C.D.",
"C.C.C.C.C.D.V.v.:.:.=.*.*.*.*.*.*.*.*.*.*.*.=.:.:.:.:.:.:.:.:.:.n.n.v.v.v.b.b.b.2.:.:.:.:.:.:.:.:.-.%.-.-.*.=.:.v.D.D.C.C.C.D.D.",
"C.C.C.C.C.V.2.$.v f f : : + O : : : : : : : > f k b b b b b k v 6 $.>.;.;.;.;.>.6 c b b b b C b k > d : : : > F ;.v.D.C.C.C.D.D.",
"C.C.C.C.D.2.$.F j Z S S D k b W S S S S S D N k S Q Q Q Q Q S N j c c c c c c v f N Q Q Q ` ` ` / b k D S S N v 6 ;.v.D.C.C.C.C.",
"J.J.D.V.2.$.F v k D ! ! ! N D { ` ! ! ! ! ! D b Q ! ! ! ! ! Q Z n Z D S S S D D k D ! ! ! ^ ` ] { D N Q ! ` S k x U >.v.V.C.C.D.",
"J.D.v.:.,.F v j l S ! ^ ! N S { ] ^ ! ! ^ ! D b Q ! ! ! ! ] Q Z Z Q ! ! ! ! ^ ^ b D ! ^ ! ! ^ ] { S N ! ! [ _ l j v 6 +.<.B.A.D.",
"J.v.;.6 f f j l l S ^ ^ ! N D { ] ! ! ! ^ ! D b Q ! ! ! ^ [ ` D Z Q ! ! ! ! ] [ V S ! ^ ! ^ ^ ] { D N ! ^ [ _ l l j > ;  .<.B.C.",
"K.-.6 f j j j l l _ [ ^ ! N N ^ ^ ! ! ! ^ ` S b Q ! ^ ^ ! ] ] W D Q ! ! ! ^ ` ` B S ! ^ ! ! ^ ^ [ Z Z ! ! ] L l l z f > : 4 &.D.",
"L.o.: j j j j l l _ ] ^ ! N N ! ^ ! ! ! ^ ] S b Q ! ^ ^ ! ] ] _ D Q ! ! ! ^ ] ] V S ! ^ ! ! ^ ^ ] Z N ! ! ] L l l z z k f ; O.J.",
"L.4 + k k z j l l L ] ^ ! N N ! ^ ! ! ! ^ ] S b Q ! ^ ^ ! ] ` W D Q ! ^ ^ ^ ] ] C S ! ^ ! ! ! ^ ^ Z N ! ! ` S l l z k B m :  .J.",
"L.4 + m b k j l l ) ] ^ ! N N ! ! ! ! ! ^ [ _ b Q ! ^ ! ! ` _ S D _ ` ` ^ ^ ^ ^ b S ! ^ ! ! ! ! ! N N ! ! ! S l l z k Z B :  .J.",
"L.4 + B Z k z l l S ^ ! ! N N ! ! ! ! ! ^ [ _ b Q ! ! ! ` } 1X1X1X1X1X1X] ! ! Q b D ^ ] ^ ! ! ^ ! N N ! ! ! S l l j k Z B : X.K.",
"L.4 + B Z k z l l S ` ! ! N N ! ! ! ! ! ^ ` S b Q ! ! ` } 8XtX6X6XhXhX8X} [ ! Q b D ` [ ( ! ! ! ! N N ! ! ! S l l j k Z B : X.L.",
"L.4 + B Z k j l l S ] ` ` Z Z ` ` ] ] ` ^ ` S b ` ` [ } 8XkXzXjXjXzXlXzX8X1X{ ^ b S [ { ] ^ ! ! ` Z Z ` ` ^ S l l j k Z B : X.L.",
"L.4 + B Z k z l k D _ _ ' V V ' _ ' ' _ Q ' L l ' | 1X8XlXfXrX3X3X6XrXsXzX8X2X' c L ' ' ' _ S ) ' V V ' _ ) Z l l j k Z B : X.L.",
"L.4 + B Z k j l l g 9 2 2 , , 9 9 9 9 9 2 9 9 2 G '.yXlXuX2X8.1X} { } 2XsXlXyXd.r r G G 2 2 2 2 9 < < 9 9 2 g l l z k Z B : X.L.",
"L.y + B Z k j m L K < , , X o < < 8 8 8 t ).5X,X5XdXsX6X'.E ) _ L S L ' 2X7XdX5X<X,X,X).Y 8 = X < , , < < < K L V l k Z B : X.L.",
"L.y + m B m m D ) K < , , o o < < < 8 q s.5XzXlXlXjX7X'.P V P E E E P V P '.7XsX3X6XrXyX).e X . , o = < < < K _ L m k n m : o.L.",
"L.y + l k V L ) A g < , , o = < < < 8 e <X5XwXpXpX7Xd.P l P d.`.`.`.d.J l P E 9X/.7.`.uX5XY o o , = = < < < g A ~ N k k l : X.L.",
"L.4 O j z B S ~ M g < < < = = < < < < q (.+X%X*X*X'.E l l E '.2XE E '.'.J l E `./.R 6.=X_.p , , < = = < < < g A A n k z j : X.L.",
"L.y + b b n M A M g < < < = = < < < 8 q Y.$X%X X+X@X`.`.`.`.'.J H J d.@X`.`. X&X&X X}.+X_.p < < < = = < < < g A A n b b b : o.L.",
"L.X.: n M n n M M g < < < = o < < < 8 q Y.%X+X/./.+X%X%X%X+Xs.h 2 h R ;X%X%X%X;X0X;X$X}._.p < < < = = < < < g M M n n M n > o.L.",
"K.X.> M A M b n M g < < < o o , , , < 0 I.OX}.R 6./._.Y.!._.s.r q r s.@X_.Y._.@X;X*X X/.I.e < < , o o , < < g M n n M A M > o.K.",
"J.X.> A A A M n k 2 X X X . . X X X X = 0 I.|.|.}.I.Y q q Y T.(.Y.(.T.s.q 0 Y _.%X&XOXI.i 1 X X X . . o X X 2 k n M A A A > o.J.",
"J.+.I 2X) A A M n 2 @ @ @ X X o @ o X . - 0 i p p s.s.t 8 q p Y Y Y p q 8 e Y s.p p i 0 1 @ @ @ o X X @ o @ 2 n M M ~ ) 2XU +.J.",
"C.+.P.6X2X| A A M g $ $ $ o o $ $ @ X . . . . . - w Y Y e 8 8 8 8 8 8 8 e p p 0 - . . X o @ $ $ @ o o $ $ 8 g A A A | 2X6XP.@.J.",
"A.O.P.jXhX2X' A A g < < < = = < < , = X = X X . X - 0 p Y t q q 0 0 0 q Y p 0 X . . X , < < < < < , o , < < g A A ' 2XhXjXP.+.C.",
"m.X.a 3XhXtX9X| D g < < < @ @ < < < < , , , , X < , = 1 i s.Y.Y.T.Y.Y.I.i 8 = , X , < < < < < < < = = < < < g A | 9XhXhX3Xa O.C.",
"m.X.a eX3XrXhX8X' g < , , o o , , < , o , , , X , , , , = 0 w w w w w w 1 = , , X , , , , , , , , o X , , , g ' 8XhXsX3XeX#.O.C.",
"M.O.4.rX X3XsXkX9XR t e e q q e e t e q e e e 0 e e e e 0 0 0 0 0 0 0 0 0 e e e 0 q e t t e e e e q q e q e R 9XkXsX3X XrXP.@.C.",
"M.+.4.3X7.'.3XsXlX,X(.(.(.T.T.(.(.(.(.(.(.(.T.T.Y.Y.(.(.(.T.I.I.I.I.I.T.Y.(.(.(.T.T.(.(.(.(.(.(.(.T.T.Y.T.Y.,XlXsX3X'.7.3X4.@.C.",
"G.+.P.sX9X9X3X4XqXaXuXuXuXuXuXiXiXiXiXiXiXuXuXuXuXuXuXiXiXuXuXuXuXuXuXuXuXuXuXuXuXuXuXuXuXuXuXuXuXuXuXuXuXuXaXqX4X3X'.E 7X4.@.A.",
"F.+.~.zX6X6XrXpX#X-X;X4X4X4X4X;X;X;X;X;X;X;X;X;X;X4X4X4XeXeX4X4X4X4X4X;X4X4X4X4X4X4X4X4X4X4X4X4X4X&X+X}.=X*X-X#XiXrX9X2XrXP.@.m.",
"F.+.~.lXkXkXzXgXXX#X%X X/.}.|.W.R.R.R.R.R.R.R.R.R.R.R.W.%X;X;X4X4XeX;X;X4X4X4X4X4X4X4X4X4X4X4X4XeX=X`.6.}.$X#XXXgXjXrX6XjX~.+.m.",
"F.+.P.zXbXbXbXvXXX-X&X/.F 6.~.q.9.9.9.9.q.q.q.q.9.9.q.i.#XwXpXpXpXpXpXpXpXpXpXpXpXpXpXpXpXpXpXpXpXeX@X`.=X;X-XXXxXzXkXjXfXP.O.A.",
"H.O.#.iXlXbXbXvXXX-X;X}.I 6.~.q.9.9.9.q.t.i.t.q.9.q.t.u..X>XiXuX:X:X:X:X:X:X:X:X:X:X:X:X:X:X:X:X:X:X>X;XwXwX-XoXvXbXbXzXiX#.O.C.",
"C.+.P.fXgXxXbXxXXX-X0X&X/.}.R.r.q.q.t.k.z.l.k.r.r.k.l.z.~.OX%XOX~.g.g.g.g.g.g.g.g.g.g.g.g.g.g.g.~.g.Q.[.;X0X-XoXxXcXjXsXfX~.+.C.",
"C.+.~.xXlXzXzXgXXX-XwXwX*X;X.Xp.e.y.j.E.E.l.f.u.j.E.].W.a.!.$XU.a s i i i i i s s s s s i i i i i s #.~.%X0X-XXXgXjXsXjXxXQ.@.C.",
"C.+.Q.bXbXzXdXpXXX-XwXwXwXwX.Xp.y.j.E.W.z.y.t.j.W.].W.R.a.OX$X!.#.I H l x x I T #.#.a I x x x x H T P.U.%X0X-X.XpXdXzXbXbXQ.@.C.",
"C.@.Q.bXbXbXlXpX.X#X;X;X;X;X.Xu.z.W.E.j.y.u.j.W.].W.z.j.OX$X+X!.#.I x l I I I U T T T I H I I I I a 4.U.$X*X#X.XuXlXbXbXbXQ.@.C.",
"D.@.Q.bXbXbXbXgXXX>XiXpXpXiX-Xz.E.R.j.u.u.l.E.].W.j.u.f.>XeX%X!.#.I H c I I I T I I I I x x H H H T 4.U.*XwX>XXXgXbXbXbXsX4.O.C.",
"C.+.P.lXbXcXzXzXXXqXfXfXfXfX>XW.E.j.u.u.j.E.].W.l.u.r.u.aXiX&X!.#.T I H U T a a I I I U H H H H H T 4.U.eXpXqXoXvXbXbXcX7Xs O.C.",
"C.O.a uXlXhXrXsXXXqXpXpXpXpX>XW.j.u.u.j.E.].E.l.u.r.e.u.:XwX%X!.P.4.T T 4.4.4.4.T T T 4.T T T T T 4.P.!.;XiXqXoXvXbXbXjX'.3  .D.",
"C.O.s U. X3XjXlXXX-XwXwXwXwX#Xk.y.k.z.W.].E.j.p.e.e.e.y..X%X$X}.^.^.^.^.^.^.^.^.^.^.^.}.&X&X&X&X&X*X*X4X;X;X-XXXvXbXrX7.6 ; O.C.",
"C.&.o.s P.=XfXlXXX-XwXwXwXwX.Xu.f.z.W.].E.j.y.e.e.e.e.r.h.OX$X}.}.}.}.}.}.}.}.}.}.}. X3XfXfXsXsXrXrXsXgX4X&X#XXXlXzX=XU ;  .<.C.",
"C.B.&.+.$.[.4XpX.X-XwXwXwXwX.Xk.z.W.W.R.j.y.e.e.e.e.e.q.a._.%X X|.+X$X$X$X$X$X$X$X$X3XrXzXsXsXsX3X6XsXzX&X+XOX.XpX4X!.s  .&.B.C.",
"C.D.V.1.O.$.U.+X].#X0XwXwX0XOXl.R.R.z.u.t.q.q.q.q.q.q.w.a.OX*X+X+X*X0X0X0X0X0X0X0XeXwXpXiX4X4X4X}.@XeXuX+X}.[..X$XU.$.O.1.B.C.C.",
"C.C.C.A.B.%.u #.$.{. X$X$X+XQ.0.0.0.0.0.0.0.0.0.0.0.7 0.!.|. X X X X X X+X$X$X$X$X$X*XwX;X;X;XeX+X*XwXwX X^.!.].P.u O.b.N.C.C.C.",
"C.C.C.D.D.1.*.-.1.2.{.U.U.P.a 7 # #                 7 7 P.T U 5.U.U.{.c.{.{.[.[.U.U.|.0X;X;X;XwX$X$X$X XU.5.#.x.o.%.<.m.A.C.C.C.",
"C.C.C.D.D.D.B.b.A.v.2.>.$.$.u & & & & & & & & & & & & u $.o...o.>.;.2.1.n.n.c.c.$.u #.*X%X%X*X;X$X X}.U.a s +.@.%.<.B.A.A.C.C.C.",
"C.C.C.C.D.D.D.C.D.D.B.<.%.%.%.%.%.&.&.&.&.&.&.&.&.&.<.<.<.<.<.<.<.1.B.C.A.B.b.1.&.% ; !.|.|.|.|.|.^.U.5.3 4 3.<.B.N.N.N.A.A.C.A.",
"C.C.C.C.C.C.C.C.C.C.A.V.V.B.B.V.V.V.V.B.B.N.N.N.N.N.N.N.A.A.A.A.A.A.C.C.C.C.C.A.B.% * 3 3 3 3 3 3 3 3 ; * % &.N.N.G.G.M.N.A.A.A.",
"C.C.C.C.C.C.C.C.C.C.C.C.D.D.D.D.D.D.D.D.C.C.C.C.C.C.C.C.C.C.C.C.C.C.C.C.C.C.C.C.C.<.&.&.&.&.&.&.&.&.&.&.%.<.B.H.F.G.G.G.M.A.M.M.",
"C.C.C.C.C.C.C.C.C.C.C.C.C.C.C.C.C.C.D.D.C.C.C.C.C.C.C.D.C.C.C.C.C.C.C.C.C.C.C.C.C.C.C.C.A.A.A.M.G.F.F.F.H.A.A.H.F.F.G.G.M.M.M.M.",
"C.C.C.C.C.C.C.C.C.C.C.C.C.C.C.C.C.C.C.C.C.C.C.C.D.D.D.D.C.C.C.C.C.C.C.C.C.C.C.C.C.C.C.C.A.A.A.m.N.F.F.F.A.A.A.A.F.G.G.N.m.A.A.A.",
"C.C.C.C.C.C.C.C.C.C.C.C.C.C.C.C.C.C.C.C.C.C.C.C.C.C.C.C.C.C.C.C.C.C.C.C.C.C.C.C.C.C.C.C.C.C.A.A.N.N.M.M.m.A.A.A.M.N.N.N.A.A.A.C.",
"C.C.C.C.C.C.C.C.C.C.C.C.C.C.C.C.C.C.C.C.C.C.C.C.C.C.C.C.C.C.C.C.C.C.C.C.C.C.C.C.C.C.C.C.C.C.C.A.A.m.M.M.m.M.A.m.M.m.m.A.A.C.C.C.",
"C.C.C.C.C.C.C.C.C.C.C.C.C.C.C.C.C.C.C.C.C.C.C.C.C.C.C.C.C.C.C.C.C.C.C.C.C.C.C.C.C.C.C.C.C.C.C.C.A.A.M.M.m.m.m.m.M.m.A.A.A.C.C.C.",
"C.C.C.C.C.C.C.C.C.C.C.C.C.C.C.C.C.C.C.C.C.C.C.C.C.C.C.C.C.C.C.C.C.C.C.C.C.C.C.C.C.C.C.C.C.C.C.C.A.A.m.m.m.m.m.m.M.A.A.A.C.C.C.C."
};
