/* XPM */
static char *b4eb156aa5514143a9e4c87c4556c1f6[] = {
/* columns rows colors chars-per-pixel */
"64 64 151 2 ",
"   c #4FF78F",
".  c #4EF68E",
"X  c #4CF48C",
"o  c #4AF28A",
"O  c #48F088",
"+  c #4EF58D",
"@  c #4DF48C",
"#  c #4CF28B",
"$  c #4BF18A",
"%  c #4BF18B",
"&  c #4CF28C",
"*  c #4DF48D",
"=  c #4EF58E",
"-  c #4DF58D",
";  c #4FF38E",
":  c #50F38F",
">  c #52F290",
",  c #52F28F",
"<  c #50F38E",
"1  c #4FF38D",
"2  c #4BF38B",
"3  c #55F392",
"4  c #59F495",
"5  c #59F494",
"6  c #55F391",
"7  c #49F189",
"8  c #60F59A",
"9  c #60F599",
"0  c #4BF38C",
"q  c #4AF18B",
"w  c #48EF8A",
"e  c #4BEF8C",
"r  c #52F191",
"t  c #59F496",
"y  c #60F69B",
"u  c #60F69A",
"i  c #52F190",
"p  c #4BEF8B",
"a  c #4CF48D",
"s  c #4AF18C",
"d  c #49EF8D",
"f  c #48ED8D",
"g  c #4AED8F",
"h  c #50F092",
"j  c #55F395",
"k  c #5BF698",
"l  c #5BF697",
"z  c #55F394",
"x  c #50F091",
"c  c #4AED8E",
"v  c #4AF08E",
"b  c #4CF38E",
"n  c #4EF68F",
"m  c #48ED8E",
"M  c #47EB90",
"N  c #49EC92",
"B  c #4DEF93",
"V  c #52F294",
"C  c #56F595",
"Z  c #56F594",
"A  c #52F293",
"S  c #4DEF92",
"D  c #49EC91",
"F  c #48EC91",
"G  c #4AEF90",
"H  c #4CF290",
"J  c #4EF58F",
"K  c #47E993",
"L  c #48EA94",
"P  c #4BEE93",
"I  c #4EF192",
"U  c #51F591",
"Y  c #51F592",
"T  c #4EF193",
"R  c #4BEE94",
"E  c #48EA95",
"W  c #4AEE93",
"Q  c #4CF191",
"!  c #4EF590",
"~  c #52F791",
"^  c #51F790",
"/  c #50F790",
"(  c #4AED92",
")  c #4BF191",
"_  c #4DF48F",
"`  c #58F795",
"'  c #57F794",
"]  c #55F793",
"[  c #48EB90",
"{  c #49EE8F",
"}  c #4BF38D",
"|  c #5EF799",
" . c #5CF798",
".. c #47ED8D",
"X. c #48EE8C",
"o. c #49F08B",
"O. c #4AF18A",
"+. c #64F79D",
"@. c #61F79B",
"#. c #47EE89",
"$. c #47EF89",
"%. c #48EF88",
"&. c #67F79F",
"*. c #5FF79A",
"=. c #5AF796",
"-. c #51F690",
";. c #4FF48E",
":. c #4EF38D",
">. c #4CF18B",
",. c #4BF08A",
"<. c #4AF089",
"1. c #49F089",
"2. c #4CF38B",
"3. c #4EF48E",
"4. c #65F79E",
"5. c #57F694",
"6. c #56F593",
"7. c #55F492",
"8. c #54F391",
"9. c #53F290",
"0. c #50F28E",
"q. c #4DF28C",
"w. c #4BF28B",
"e. c #53F591",
"r. c #56F694",
"t. c #66F79E",
"y. c #5DF698",
"u. c #5CF597",
"i. c #5BF496",
"p. c #52F490",
"a. c #4EF48D",
"s. c #5CF797",
"d. c #63F69C",
"f. c #56F693",
"g. c #47EC8D",
"h. c #47EA91",
"j. c #47E895",
"k. c #48E996",
"l. c #49EB95",
"z. c #4AED94",
"x. c #4BF091",
"c. c #4BF18F",
"v. c #4CF38D",
"b. c #4CF192",
"n. c #4BF28D",
"m. c #4AF28B",
"M. c #47EF87",
"N. c #47EF88",
"B. c #47EE88",
"V. c #47ED8B",
"C. c #47EC8C",
/* pixels */
"                                                            . X o O O o X .                                                     ",
"                                                            . X o O O o X .                                                     ",
"                                                        . . + @ # $ % & * = . .                 . . . .                         ",
"                                                      . - X * ; : > , < 1 @ X - .             . - X X - .                       ",
"                                                    . - X 2 & : 3 4 5 6 < # 2 X - .         . - X 2 2 X - .                     ",
"                                                    . X 2 7 % > 4 8 9 5 , $ 7 2 X .         . X 2 7 7 2 X .                     ",
"                                                . . - 0 q w e r t y u 4 i p w q a .     . . - X o 7 7 o X - . .                 ",
"                                              . - X 0 s d f g h j k l z x c f v b n   . - X X 2 2 o o 2 2 X X - .               ",
"                                            . - X 2 q d m M N B V C Z A S D F G H J . - X 2 o 2 2 X X 2 2 o 2 X - .             ",
"                                            . X 2 7 w f M K L P I U Y T R E L W Q ! . X 2 7 7 o X - - X o 7 7 2 X .             ",
"~ ~ ~ ~ ~ ~ ~ ~ ~ ~ ~ ~ ~ ~ ~ ~ ~ ~ ~ ^ /   . X 2 7 w f M K L ( ) _ _ ) ( L L ( ) _ - 0 q w w q a . . a q w w q 0 - . .         ",
"` ` ` ` ` ` ` ` ` ` ` ` ` ` ` ` ` ` ' ] ~ / . - X 2 q d m M [ { v } } v { [ [ { v } 0 s d f f v b n n b v f f d s 0 X - .       ",
"| | | | | | | | | | | | | | | | | |  .` ] ^   . - X 0 s d f ..X.o.O.O.o.X.....X.o.O.q d m M F G H J J H G F M m d q 2 X - .     ",
"+.+.+.+.+.+.+.+.+.+.+.+.+.+.+.+.+.+.@. .' ~     . . - 0 q w #.$.%.O O %.$.#.#.$.%.O w f M K L W Q ! ! Q W L K M f w 7 2 X .     ",
"&.&.&.&.&.&.&.&.&.&.&.&.&.&.&.&.&.&.+.*.=.] ~ ~ ~ ~ -.;.:.>.,.,.,.,.,.<.1.O O O O O w f M K L ( ) _ _ ) ( L K M f w 7 2.3.-.~ ~ ",
"&.&.&.&.&.&.&.&.&.&.&.&.&.&.&.&.&.&.4.@.| =.` ` ` ` 5.6.7.8.9.9.9.9., 0.q.w.o o o o q d m M [ { v } } v { [ M m d q 2.;.e.r.` ` ",
"&.&.&.&.&.&.&.&.&.&.&.&.&.&.&.&.&.&.t.+.@.*.| | | | | y.u.i.i.i.i.i.4 7.p.a.X X X X 0 s d f ..X.o.O.O.o.X...f d s 0 3.e.5.s.| | ",
"&.&.&.&.&.&.&.&.&.&.&.&.&.&.&.&.&.&.&.t.4.+.+.+.+.+.+.+.d.d.d.d.d.d.u l f.-.. . . . - 0 q w #.$.%.O O %.$.#.w q 0 - -.r.s.@.+.+.",
"&.&.&.&.&.&.&.&.&.&.&.&.&.&.&.&.&.&.&.&.&.&.&.&.&.&.&.&.&.&.&.&.&.&.+.*.=.] ~ ~ ~ ~ -.;.:.>.,.,.,.,.,.,.,.,.>.:.;.-.] =.*.+.&.&.",
"&.&.&.&.&.&.&.&.&.&.&.&.&.&.&.&.&.&.&.&.&.&.&.&.&.&.&.&.&.&.&.&.&.&.4.@.| =.` ` ` ` 5.6.7.8.9.9.9.9.9.9.9.9.8.7.6.5.=.| @.4.&.&.",
"&.&.&.&.&.&.&.&.&.&.&.&.&.&.&.&.&.&.&.&.&.&.&.&.&.&.&.&.&.&.&.&.&.&.t.+.@.*.| | | | | y.u.i.i.i.i.i.i.i.i.i.i.u.y.| *.@.+.t.&.&.",
"&.&.&.&.&.&.&.&.&.&.&.&.&.&.&.&.&.&.&.&.&.&.&.&.&.&.&.&.&.&.&.&.&.&.&.t.4.+.+.+.+.+.+.+.d.d.d.d.d.d.d.d.d.d.d.d.+.+.+.4.t.&.&.&.",
"&.&.&.&.&.&.&.&.&.&.&.&.&.&.&.&.&.&.&.&.&.&.&.&.&.&.&.&.&.&.&.&.&.&.&.t.4.+.+.+.d.d.d.d.+.+.+.+.+.+.+.4.t.&.&.&.&.&.&.&.&.&.&.&.",
"&.&.&.&.&.&.&.&.&.&.&.&.&.&.&.&.&.&.&.&.&.&.&.&.&.&.&.&.&.&.&.&.&.&.t.+.@.*.| y.u.i.i.u.y.| | | | | *.@.+.t.&.&.&.&.&.&.&.&.&.&.",
"&.&.&.&.&.&.&.&.&.&.&.&.&.&.&.&.&.&.&.&.&.&.&.&.&.&.&.&.&.&.&.&.&.&.4.@.| =.5.6.7.8.8.7.6.5.` ` ` ` =.| @.4.&.&.&.&.&.&.&.&.&.&.",
"&.&.&.&.&.&.&.&.&.&.&.&.&.&.&.&.&.&.&.&.&.&.&.&.&.&.&.&.&.&.&.&.&.&.+.*.=.] -.;.:.>.>.:.;.-.~ ~ ~ ~ ] =.*.+.&.&.&.&.&.&.&.&.&.&.",
"+.+.+.+.d.d.d.d.+.+.+.+.+.+.+.4.t.&.&.&.&.&.&.&.&.&.&.&.&.&.&.t.4.+.@.s.r.-.+ @ & % % & * = . .     ~ '  .@.+.4.t.&.&.t.4.+.+.+.",
"| | | y.u.i.i.u.y.| | | | | *.@.+.t.&.&.&.&.&.&.&.&.&.&.&.&.t.+.@.*.s.5.e.3.* ; : > > : 1 @ X - .   ^ ] `  .*.@.+.t.t.+.@.*.| | ",
"` ` 5.6.7.8.8.7.6.5.` ` ` ` =.| @.4.&.&.&.&.&.&.&.&.&.&.&.&.4.@.| =.r.e.;.2.& : 3 4 4 6 < # 2 X - . / ~ ] ' =.| @.4.4.@.| =.` ` ",
"~ ~ -.;.:.>.>.:.;.-.~ ~ ~ ~ ] =.*.+.&.&.&.&.&.&.&.&.&.&.&.&.+.*.=.] -.3.2.7 % > 4 8 9 5 , $ 7 2 X .   / ^ ~ ] =.*.+.+.*.=.] ~ ~ ",
". . - X o 7 7 o X - . .     ~ '  .@.+.4.t.&.&.t.4.+.+.+.+.+.@.s.r.-.- 0 q w e r t y u 4 i p w q 0 - . .     ~ '  .@.@. .' ~     ",
"X X X 2 2 o o 2 2 X X - .   ^ ] `  .*.@.+.t.t.+.@.*.| | | | s.5.e.3.0 s d f g h j k l z x c f d s 0 X - .   ^ ] `  . .` ] ^     ",
"o o o 2 2 X X 2 2 o 2 X - . / ~ ] ' =.| @.4.4.@.| =.` ` ` ` r.e.;.2.q d m M N B V Z Z A S N M m d q 2 X - . / ~ ] ' ' ] ~ /     ",
"O O 7 o X - - X o 7 7 2 X .   / ^ ~ ] =.*.+.+.*.=.] ~ ~ ~ ~ -.3.2.7 w f M K E P I U U T R E K M f w 7 2 X .   / ^ ~ ~ ^ /       ",
"#.#.w q a . . a q w w q a .     . . -.r.s.@.@. .' ~         . X 2 7 w f M K L ( ) _ _ ) ( L K M f w 7 2 X .             . . . . ",
"g.g.f v b n n b v f f v b n   . - X 3.e.5.s. .` ] ^         . - X 2 q d m M [ { v } } v { [ M m d q 2 X - .           . - X X X ",
"h.h.F G H J J H G F F G H J . - X 2 2.;.e.r.' ] ~ /           . - X 0 s d f ..X.o.O.O.o.X...f d s 0 X - .           . - X 2 o o ",
"j.j.L W Q ! ! Q W L L W Q ! . X 2 7 7 2.3.-.~ ^ /               . . - 0 q w #.$.%.O O %.$.#.w q 0 - . .             . X 2 7 O O ",
"k.k.l.W Q _ _ ) ( L L ( ) _ + * & % % & * + . .                     . X 2 7 O O O O O O O O 7 2 X .                 . X 2 7 O O ",
"z.z.W x.c.v.} v { [ [ { v } @ ; : > > : ; @ X - .                   . - X 2 o o o o o o o o 2 X - .                 . - X 2 o o ",
"b.b.Q c.n.m.O.o.X.....X.o.O.& : 3 4 4 3 < # 2 X - .                   . - X X X X X X X X X X - .                     . - X X X ",
"! ! _ v.m.7 O %.$.#.#.$.%.O % > 4 8 8 4 , $ 7 2 X .                     . . . . . . . . . . . .                         . . . . ",
"    . X 2 7 O O M.M.M.N.B.#.e r t u u 4 i e w q 0 - . .                                                                         ",
"    . - X 2 o 7 O M.N.#.V.C.g h j l l z x g f d s 0 X - .                                                                       ",
"      . - X 2 o 7 O B.V.g.M N B A Z Z A B N M m d q 2 X - .                                                                     ",
"        . . - 2 o O #.C.M K E R I U U I R E K M f w 7 2 X .                                                                     ",
"            . X 2 7 w f M K L ( ) _ _ ) ( L K M f w 7 2 X .                                             . . . .                 ",
"            . - X 2 q d m M [ { v } } v { [ M m d q 2 X - .                                           . - X X - .               ",
"              . - X 0 s d f ..X.o.O.O.o.X...f d s 0 X - .                                           . - X 2 2 X - .             ",
"                . . - 0 q w #.$.%.O O %.$.#.w q 0 - . .                                             . X 2 7 7 2 X .             ",
"                    . X 2 7 O O O O O O O O 7 2 X .                                             . . - X o 7 7 o X - . .         ",
"                    . - X 2 o o o o o o o o 2 X - .                                           . - X X 2 2 o o 2 2 X X - .       ",
"                      . - X X X X X X X X X X - .                                           . - X 2 o 2 2 X X 2 2 o 2 X - .     ",
"                        . . . . . . . . . . . .                                             . X 2 7 7 o X - - X o 7 7 2 X .     ",
"                                                                                        . . - 0 q w w q a . . a q w w q 0 - . . ",
"                                                                                      . - X 0 s d f f v b n n b v f f d s 0 X X ",
"                                                                                    . - X 2 q d m M F G H J J H G F M m d q o o ",
"                                                                                    . X 2 7 w f M K L W Q ! ! Q W L K M f w O O ",
"                                                                                    . X 2 7 w f M K L ( ) _ _ ) ( L K M f w O O ",
"                                                                                    . - X 2 q d m M [ { v } } v { [ M m d q o o ",
"                                                                                      . - X 0 s d f ..X.o.O.O.o.X...f d s 0 X X ",
"                                                                                        . . - 0 q w #.$.%.O O %.$.#.w q 0 - . . ",
"                                                                                            . X o O M.M.M.M.M.M.M.M.O o X .     ",
"                                                                                            . X o O M.M.M.M.M.M.M.M.O o X .     "
};
