/* XPM */
static char *ec95f24cb2cf44cb9dc9f763c1a602d5nQYCtGS7sZcojPS2[] = {
/* columns rows colors chars-per-pixel */
"64 64 188 2 ",
"   c #000000",
".  c #090304",
"X  c #0D0D0D",
"o  c #060409",
"O  c #07150D",
"+  c #0B1F12",
"@  c #141414",
"#  c #1E1E1E",
"$  c #0C0216",
"%  c #0E2A19",
"&  c #0B2013",
"*  c #112A1B",
"=  c #11321E",
"-  c #1A082D",
";  c #18062C",
":  c #1E0738",
">  c #22083F",
",  c #200C2E",
"<  c #1F3829",
"1  c gray13",
"2  c #2B2B2B",
"3  c #343434",
"4  c #3E3E3E",
"5  c #212A39",
"6  c #4B0A1F",
"7  c #5A0D26",
"8  c #471C26",
"9  c #690F2C",
"0  c #7F1135",
"q  c #6B293D",
"w  c #51202C",
"e  c #194A2B",
"r  c #18462A",
"t  c #1E5C35",
"y  c #205F38",
"u  c #22683D",
"i  c #22663C",
"p  c #2E0855",
"a  c #39145F",
"s  c #240844",
"d  c #390B6B",
"f  c #350A64",
"g  c #3C1268",
"h  c #3F0C75",
"j  c #410B78",
"k  c #470C72",
"l  c #552D7F",
"z  c #267A46",
"x  c #297D49",
"c  c #287848",
"v  c #377C51",
"b  c #33714A",
"n  c #4C4C4C",
"m  c #444444",
"M  c #535353",
"N  c #5D5D5D",
"B  c #585247",
"V  c #57615B",
"C  c #696969",
"Z  c #7D7D7D",
"A  c #757575",
"S  c #95133F",
"D  c #861238",
"F  c #9D1543",
"G  c #B3164B",
"H  c #B41A4E",
"J  c #B51D50",
"K  c #A91658",
"L  c #B82657",
"P  c #B9295A",
"I  c #A6365B",
"U  c #A83357",
"Y  c #A6224E",
"T  c #891379",
"R  c #AC1C79",
"E  c #AE1A69",
"W  c #BC3663",
"Q  c #BE3C68",
"!  c #BD3966",
"~  c #B83A7B",
"^  c #AE2B6E",
"/  c #985B64",
"(  c #944959",
")  c #C44D75",
"_  c #C44C74",
"`  c #2D8F52",
"'  c #328852",
"]  c #2F8C53",
"[  c #38AD67",
"{  c #3DB76C",
"}  c #3BB96B",
"|  c #39B067",
" . c #4EBA78",
".. c #3ECA74",
"X. c #3EC579",
"o. c #41CD76",
"O. c #42CE78",
"+. c #4ACE7D",
"@. c #43D67B",
"#. c #45D87D",
"$. c #53C57F",
"%. c #4C0D8E",
"&. c #4B1680",
"*. c #500D95",
"=. c #570E8D",
"-. c #6B1099",
";. c #690F9B",
":. c #5B0EAA",
">. c #5B0EA5",
",. c #630FA1",
"<. c #6612A3",
"1. c #6519B2",
"2. c #711ACA",
"3. c #7A1ED7",
"4. c #6C17C2",
"5. c #7624C7",
"6. c #7C26D3",
"7. c #B73A82",
"8. c #B4388F",
"9. c #BA3F81",
"0. c #AE2C8E",
"q. c #A222B5",
"w. c #AA34B4",
"e. c #A421A5",
"r. c #BF6282",
"t. c #CA5D82",
"y. c #C25691",
"u. c #D37998",
"i. c #C06585",
"p. c #9F30DA",
"a. c #A633C2",
"s. c #A737CA",
"d. c #8725E8",
"f. c #9A2CE6",
"g. c #8C27F1",
"h. c #952BFF",
"j. c #9831FE",
"k. c #9E3CFD",
"l. c #A64DFD",
"z. c #A246FC",
"x. c #AE5EFA",
"c. c #A957F9",
"v. c #B46BF8",
"b. c #55CE84",
"n. c #46DD81",
"m. c #47EE87",
"M. c #49EA86",
"N. c #47EE8A",
"B. c #49EE8C",
"V. c #46E081",
"C. c #4EF68E",
"Z. c #50F78F",
"A. c #47EB92",
"S. c #49EC92",
"D. c #4DF291",
"F. c #53F792",
"G. c #59F796",
"H. c #5EF799",
"J. c #5FE392",
"K. c #64EE99",
"L. c #6AEF9C",
"P. c #66F79E",
"I. c #818181",
"U. c #898989",
"Y. c #939393",
"T. c #9B9B9B",
"R. c #8F9190",
"E. c gray64",
"W. c #AAAAAA",
"Q. c #B2B2B2",
"!. c #B9B9B9",
"~. c #A68B94",
"^. c #C49EAC",
"/. c #E3A9BE",
"(. c #E2A4BA",
"). c #BF81FB",
"_. c #EABDCE",
"`. c #C792F7",
"'. c #C792F8",
"]. c #DDC0F4",
"[. c #E0C6F9",
"{. c #E3CBF7",
"}. c #E9D6F8",
"|. c #E9D7F6",
" X c #E4E4E4",
".X c #F9F9F9",
"XX c #FAF7FA",
"oX c #F1E8F8",
/* pixels */
"C.C.C.C.C.C.C.C.C.C.C.C.C.C.C.C.C.C.C.Z.C.C.C.C.C.C.C.C.C.C.C.C.C.C.C.C.C.C.C.C.C.C.C.C.C.C.C.C.C.C.C.C.C.C.C.C.C.C.C.C.C.C.C.C.",
"C.C.C.C.C.C.C.C.C.C.C.C.C.C.C.C.C.C.C.Z.C.C.C.C.C.C.C.C.C.C.C.C.C.C.C.C.C.C.C.C.C.C.C.C.C.C.C.C.C.C.C.C.C.C.C.C.C.C.C.C.C.C.C.C.",
"C.C.C.C.C.C.C.C.C.C.C.C.Z.C.C.C.C.C.C.C.C.C.C.C.Z.C.C.C.C.C.C.C.C.C.C.C.C.C.C.C.C.C.C.C.C.C.C.C.C.C.C.C.C.C.C.C.C.C.C.C.Z.C.C.C.",
"C.C.C.C.C.C.C.C.C.C.C.C.C.C.C.C.C.C.C.C.C.B.} } } } } } } } } } { { { { { { { } ..C.C.C.C.C.C.C.C.C.C.C.C.C.C.C.C.C.C.C.Z.Z.C.C.",
"C.C.C.C.C.C.C.C.C.C.C.C.C.C.C.C.C.C.C.C.C.O.                                    % C.C.C.C.C.C.C.C.C.C.C.C.C.C.C.C.C.C.C.C.C.C.C.",
"C.C.C.C.C.C.C.C.C.C.C.C.C.C.C.C.C.C.C.C.C.O.                                    % C.C.C.C.C.C.C.C.C.C.C.C.C.C.C.C.C.C.C.C.C.C.C.",
"C.C.C.C.C.C.C.C.C.C.C.C.n.O.O.O.O.O.O.O.O.| - - - - - - - - - - - - - - - - - - 5 o.O.O.o.o.o.o.....V.C.C.C.C.C.C.C.C.C.C.C.C.C.",
"C.C.C.Z.C.C.C.C.C.C.C.C.u                 - h.h.h.h.h.h.h.h.h.h.h.h.h.h.h.h.h.h.6.                  ` C.C.C.C.C.C.C.C.C.C.C.C.C.",
"C.C.C.C.C.C.C.C.C.C.C.C.u                 - h.h.h.h.h.h.h.h.h.h.h.h.h.h.h.h.h.h.6.                  ` C.C.C.C.C.C.C.C.C.C.C.C.C.",
"Z.Z.Z.Z.Z.Z.Z.Z.Z.B.B.B.i . . . . . . . . , h.h.h.h.h.h.h.h.h.h.h.h.h.h.h.h.h.h.6.o . . . . . . . . ] M.M.m.C.C.C.C.C.C.C.C.C.C.",
"F.F.F.F.F.F.F.F.F.r & + q I I I I I I I I ^ h.h.h.h.h.h.h.h.h.h.h.h.h.h.h.p.~ ~ ~ I I I I I I F F F 8 + + ] M.C.C.C.C.C.C.C.C.C.",
"G.G.G.G.G.G.G.G.G.*     q Q Q Q Q Q Q Q Q 7.h.h.h.h.h.h.h.h.h.h.h.h.h.h.h.p.Q Q Q Q Q Q Q Q Q J G G 6     z B.B.C.C.C.C.C.C.C.C.",
"H.H.H.H.H.H.H.H.H.*     q Q Q Q Q Q Q Q Q 7.h.h.h.h.h.h.h.h.h.h.h.h.h.h.h.p.Q Q Q Q Q Q Q Q Q J G G 6     c A.B.B.C.C.C.C.C.C.C.",
"P.P.P.P.P.K.r * * ~.^.^.i.Q Q Q Q Q Q Q Q 9.z.z.z.z.z.z.j.h.h.h.h.h.a.7.7.y./././././.(._ Q Q W W W Y S S w % % u B.C.C.C.C.C.C.",
"P.P.P.P.P.K.+     ^._._.u.Q Q Q Q Q Q Q Q 9.l.l.l.l.l.l.j.h.h.h.h.h.w.Q Q t._._._._._._.) Q Q Q Q Q L G G 7     r B.C.C.C.C.F.F.",
"P.P.P.P.P.K.+     ^._._.u.Q Q Q Q Q Q Q Q 9.l.l.l.l.l.l.j.h.h.h.h.h.w.Q Q t._._._._._._.) Q Q Q Q Q L G G 7     r B.C.C.F.F.G.G.",
"P.P.P.P.P.L.q 9 9 r.u.u.) Q Q Q Q Q ~ a.a.s.l.l.l.l.l.l.j.h.h.h.h.h.w.Q Q t._._._._._._.) Q Q Q Q Q L G G 7     r C.C.F.F.G.H.H.",
"P.P.P.P.P.L.U G G W Q Q Q Q Q Q Q Q 8.h.h.j.l.l.l.l.l.l.j.h.h.h.h.h.w.Q Q t._._._._._._.) Q Q Q Q Q L G G 7     e C.Z.F.G.H.P.P.",
"P.P.P.P.P.L.U G G W Q Q Q Q Q Q Q Q 8.h.h.j.l.l.l.l.l.l.j.h.h.h.h.h.w.Q Q t._._._._._._.) Q Q Q Q Q L G G 7     e F.F.G.H.P.P.P.",
"P.P.J.v v v U P P Q Q Q Q Q Q W P P 0.h.h.h.k.k.k.k.k.k.h.h.h.h.h.h.w.Q Q ) u.u.u.u.u.u._ Q Q Q Q Q L G G D 7 7 B G.G.H.P.P.P.P.",
"P.P.b.    . I Q Q Q Q Q Q Q Q P G G R h.h.h.h.h.h.h.h.h.h.h.h.h.h.h.w.Q Q Q Q Q Q Q Q Q Q Q Q Q Q Q L G G G G G / H.H.P.P.P.P.P.",
"P.P.b.    . I Q Q Q Q Q Q Q Q P G G R h.h.h.h.h.h.h.h.h.h.h.h.h.h.h.w.Q Q Q Q Q Q Q Q Q Q Q Q Q Q Q L G G G G G / P.P.P.P.P.P.P.",
"P.P.b.    . I Q Q Q Q Q W W W ^ R R 0.x.x.c.h.h.h.x.x.x.j.h.h.h.h.h.a.8.8.7.Q Q Q Q Q Q Q Q Q Q Q Q L G G G G G (  . .$.P.P.P.P.",
"P.P.b.    . I Q Q Q Q Q L G G e.h.h.x..X.X|.h.h.h.oX.XXXl.h.h.h.h.h.h.h.h.p.Q Q Q Q Q Q Q Q Q Q Q Q L G G G G G 0     * P.P.P.P.",
"P.P.b.    . I Q Q Q Q Q L G G e.h.h.x..X.X|.h.h.h.oX.X.Xl.h.h.h.h.h.h.h.h.p.Q Q Q Q Q Q Q Q Q Q Q Q L G G G G G 0     * P.P.P.P.",
"P.P.b.    . U W W W W W ^ E E w.l.l.v.}.}.].l.l.l.{.}.}.v.l.l.k.h.h.h.h.h.f.7.7.~ Q Q Q Q Q Q Q Q Q L G G G G G 0     * P.P.P.P.",
"P.P.b.    . F G G G G G q.h.h.`..X.X[.h.h.l..X.X.Xk.h.h.}..X.X).h.h.h.h.h.h.h.h.f.Q Q Q Q Q Q Q Q Q L G G G G G 0     * P.P.P.P.",
"P.P.b.    . F G G G G G q.h.h.`..X.X[.h.h.l..X.X.Xk.h.h.}..X.X).h.h.h.h.h.h.h.h.f.Q Q Q Q Q Q Q Q Q L G G G G G 0     * P.P.P.P.",
"G.G.+.    . F G G G G G q.h.h.`..X.X[.h.h.l..X.X.Xk.h.h.}..X.X).h.h.h.h.h.h.h.h.f.Q Q Q Q Q Q Q Q Q L G G G G G 0     * H.G.G.G.",
"F.F.O.    o =.,.,.d.f.f.h.h.h.`..X.X[.h.h.l..X.X.Xk.h.h.}..X.X).h.h.h.h.h.h.h.h.g.<.<.<.K H H H H H G G G T ,.,.k     * G.G.F.F.",
"C.C.o.    o *.:.:.g.h.h.h.h.h.`..X.X[.h.h.l..X.X.Xk.h.h.}..X.X).h.h.h.h.h.h.h.h.g.:.:.>.K G G G G G G G G T :.:.j     * G.F.F.Z.",
"C.C.o.    o *.:.:.g.h.h.h.h.h.'..X.X[.h.h.l..X.X.Xk.h.h.}..X.X).h.h.h.h.h.h.h.h.g.:.:.>.K G G G G G G G G T :.:.j     * G.F.F.C.",
"C.C...    o *.:.:.g.h.h.h.h.h.k.l.l.z.h.h.j.l.l.l.h.h.h.z.l.l.k.h.h.h.h.h.h.h.h.g.:.:.:.;.-.-.-.-.-.-.-.-.,.:.:.j     % F.Z.C.C.",
"C.C...    o *.:.:.g.h.h.h.h.h.h.h.h.h.h.h.h.h.h.h.h.h.h.h.h.h.h.h.h.h.h.h.h.h.h.g.:.:.:.:.:.:.:.:.:.:.:.:.:.:.:.j     % Z.C.C.C.",
"N.N...    o *.:.:.g.h.h.h.h.h.h.h.h.h.h.h.h.h.h.h.h.h.h.h.h.h.h.h.h.h.h.h.h.h.h.g.:.:.:.:.:.:.:.:.:.:.:.:.:.:.:.j     % C.C.C.C.",
"B.B.X.      : > s 1.2.2.d.h.h.h.h.h.6.a a a a a a a a g d.h.h.h.h.h.d.2.2.2.2.2.4.:.:.:.:.:.:.:.:.:.:.:.:.h > > ;     % C.C.C.C.",
"A.A.X.            %.:.:.3.h.h.h.h.h.5.                  6.h.h.h.h.h.3.:.:.:.:.:.:.:.:.:.:.:.:.:.:.:.:.:.:.p           % C.C.C.C.",
"A.A.X.            %.:.:.3.h.h.h.h.h.5.                  6.h.h.h.h.h.3.:.:.:.:.:.:.:.:.:.:.:.:.:.:.:.:.:.:.p           % C.C.C.C.",
"A.A.X.            s p p h &.&.&.&.&.l Z Z Z Z Z Z Z Z Z l &.&.1.3.3.4.:.:.:.:.:.:.:.:.>.f p p p p p p p p ;           % C.C.C.m.",
"S.S.X.                              4 .X.X.X.X.X.X.X.X.X2     f :.:.:.:.:.:.:.:.:.:.:.>.$                             % C.C.C.C.",
"D.D.o.                              4 .X.X.X.X.X.X.X.X.X2     f :.:.:.:.:.:.:.:.:.:.:.>.$                             % C.C.C.C.",
"D.D.n.t t t o     # 1 1 X           4 .X.X.X.X.X.X.X.X.X2     > d d d d d d d d d d d f o           @ 1 1 @     + y t c C.C.C.C.",
"C.C.C.C.C.M.+     m M M 1           4 .X.X.X.X.X.X.X.X.X2                                           3 M M 2     e C.C.C.C.C.C.C.",
"C.C.C.C.C.M.+     m M M 1           4 .X.X.X.X.X.X.X.X.X2                                           3 M M 2     e C.C.C.C.C.C.C.",
"C.C.C.C.C.M.+     M C C 3 # # X     4 .X.X.X.X.X.X.X.X.X2                               X X X # # # m C C 3     e C.C.C.C.C.C.C.",
"C.C.C.C.C.M.+     T.!.!.W.T.T.n     4 .X.X.X.X.X.X.X.X.X2                             . n M M U.T.T.W.!.!.N     e C.C.C.C.C.C.C.",
"C.C.C.C.C.B.+     T.!.!.W.T.T.n     4 .X.X.X.X.X.X.X.X.X2                             . n M M U.T.T.W.!.!.N     e C.C.C.C.C.C.C.",
"C.C.C.C.C.B.= O O R.W.W.E.T.T.M X X m  X X X X X X X X X3 X X X X X X X X X X X X X X @ M N N Y.T.T.W.W.W.V O O t C.C.C.C.C.C.C.",
"C.C.C.C.C.C.n.#.#.< @ @ A Q.Q.T.U.U.C # # # # # # # # # A U.U.U.U.U.U.U.U.U.U.U.U.U.U.U.Y.Y.Y.Q.Q.Q.N @ @ c @.@.n.C.C.C.C.C.C.C.",
"C.C.C.C.C.C.C.C.C.%     C !.!.W.T.T.A                   I.T.T.T.T.T.T.T.T.T.T.T.T.T.T.T.T.T.T.Q.!.!.n     z C.C.C.C.C.C.C.C.C.C.",
"C.C.C.C.C.C.C.C.C.%     C !.!.W.T.T.A                   I.T.T.T.T.T.T.T.T.T.T.T.T.T.T.T.T.T.T.Q.!.!.n     z C.C.C.C.C.C.C.C.C.C.",
"C.C.C.C.C.C.C.C.C.#.O.o.b # # C Q.Q.W.I.I.I.I.I.I.I.I.I.T.T.T.T.T.T.T.T.T.T.T.T.T.Q.Q.Q.Q.Q.Q.3 # # ' o.o.n.C.C.C.C.C.C.C.C.C.C.",
"C.C.Z.C.C.C.C.C.C.C.C.C.u     N !.!.Q.T.T.T.T.T.T.T.T.T.T.T.T.T.T.T.T.T.T.T.T.T.E.!.!.!.!.!.!.#     ` C.C.C.C.C.C.C.C.C.C.C.C.C.",
"C.C.C.C.C.C.C.C.C.C.C.C.u     N !.!.Q.T.T.T.T.T.T.T.T.T.T.T.T.T.T.T.T.T.T.T.T.T.E.!.!.!.!.!.!.#     ` C.C.C.C.C.C.C.C.C.C.C.C.C.",
"C.C.C.C.C.C.C.C.C.C.C.C.O.| | v 3 3 3 2 2 m Q.Q.Q.Q.Q.Q.Q.Q.Q.Q.Q.Q.Q.Q.Q.Q.Q.Q.T.3 3 3 3 3 3 ` [ [ ..C.C.C.C.C.C.M.C.C.C.C.C.C.",
"C.C.C.C.C.C.C.C.C.C.C.C.C.C.C.x           # !.!.!.!.!.!.!.!.!.!.!.!.!.!.!.!.!.!.T.            ..C.B.B.B.C.C.C.C.C.B.B.B.C.C.C.C.",
"C.C.C.C.C.C.Z.C.C.C.C.C.C.C.C.x           # !.!.!.!.!.!.!.!.!.!.!.!.!.!.!.!.!.!.T.            ..B.B.B.S.C.C.C.D.S.S.A.B.B.C.C.C.",
"C.C.Z.C.C.C.C.C.C.C.C.C.C.C.C.} x x x x x v N N N N N N N N N N N N N N N N N N V x x z z z z n.B.A.A.S.D.D.C.D.S.A.A.A.B.B.C.C.",
"C.C.Z.C.C.C.C.C.Z.Z.C.C.C.C.C.Z.C.C.C.C.C.O.                                    % C.C.C.C.C.C.B.A.A.A.S.D.D.C.D.S.S.A.A.B.B.N.m.",
"C.C.C.C.C.C.C.C.C.C.C.C.C.C.C.Z.C.C.C.C.C.O.                                    % C.C.C.C.C.C.B.B.A.A.S.C.C.C.C.S.S.A.B.B.M.C.C.",
"C.C.C.C.C.C.C.C.C.C.C.Z.C.C.C.C.C.C.C.C.C.V.u u u u u u u u u u u u u u u u u u ' C.C.C.C.C.C.C.B.B.B.B.C.C.C.C.B.B.B.B.C.C.C.C.",
"C.C.C.C.C.C.C.C.C.C.C.C.C.C.C.C.C.C.C.C.C.C.C.C.C.C.C.C.C.C.C.C.C.C.C.C.C.C.C.C.C.C.C.C.C.C.C.C.C.M.N.N.N.M.C.C.M.N.M.C.C.C.C.C.",
"C.C.C.C.C.C.C.Z.C.C.C.C.C.C.C.C.C.C.C.C.C.C.C.C.C.C.C.C.C.C.C.C.C.C.C.C.C.C.C.C.C.C.C.C.C.C.C.C.C.C.N.N.m.N.M.N.N.N.C.C.C.C.C.C.",
"C.C.Z.C.C.C.C.Z.C.C.C.C.C.C.C.C.C.C.C.C.C.C.C.C.C.C.C.C.C.C.C.C.C.C.C.C.C.C.C.C.C.C.C.C.C.C.C.C.C.C.m.m.m.m.m.m.m.m.C.C.C.C.C.C."
};
