/* XPM */
static char *da04185b14b741af8d6d9abbbdb77e24[] = {
/* columns rows colors chars-per-pixel */
"64 64 213 2 ",
"   c #000000",
".  c #040E08",
"X  c #0D0506",
"o  c #19080A",
"O  c #0A1218",
"+  c #0E1416",
"@  c #1C1516",
"#  c #0C1511",
"$  c #271415",
"%  c #331D1B",
"&  c #0C2516",
"*  c #13311E",
"=  c #10291A",
"-  c #0E1A23",
";  c #123821",
":  c #133621",
">  c #18253A",
",  c #1A303E",
"<  c #262C37",
"1  c #2E292F",
"2  c #631D27",
"3  c #4B3F38",
"4  c #413B3C",
"5  c #4F312A",
"6  c #6C252C",
"7  c #702A35",
"8  c #1C5732",
"9  c #194830",
"0  c #1E6239",
"q  c #24663D",
"w  c #255E38",
"e  c #5A4434",
"r  c #74573D",
"t  c #43643F",
"y  c #1D3745",
"u  c #25334C",
"i  c #293C68",
"p  c #563F4B",
"a  c #693C4D",
"s  c #314049",
"d  c #3E404E",
"f  c #384050",
"g  c #384558",
"h  c #38495F",
"j  c #254159",
"k  c #256943",
"l  c #297346",
"z  c #30714B",
"x  c #3B4A64",
"c  c #384E69",
"v  c #354368",
"b  c #38526C",
"n  c #375472",
"m  c #294662",
"M  c #4B414B",
"N  c #544048",
"B  c #484B5B",
"V  c #5B5B55",
"C  c #624044",
"Z  c #784040",
"A  c #704040",
"S  c #735848",
"D  c #61595A",
"F  c #715150",
"G  c #496C49",
"H  c #464D61",
"J  c #4A5567",
"K  c #595D6A",
"L  c #5D6474",
"P  c #6E6D77",
"I  c #6D6145",
"U  c #992D3C",
"Y  c #9C303E",
"T  c #862934",
"R  c #873D46",
"E  c #973B47",
"W  c #A53643",
"Q  c #B83348",
"!  c #B63B4A",
"~  c #B83848",
"^  c #B53447",
"/  c #AC3F57",
"(  c #854946",
")  c #885149",
"_  c #965158",
"`  c #BD4050",
"'  c #B84A59",
"]  c #A7545A",
"[  c #826048",
"{  c #9A6F5D",
"}  c #906A50",
"|  c #AB785E",
" . c #A56A5F",
".. c #9D5866",
"X. c #B95866",
"o. c #8D776C",
"O. c #A36165",
"+. c #C04454",
"@. c #C64C5C",
"#. c #C34358",
"$. c #C2515A",
"%. c #CF5A6A",
"&. c #C75565",
"*. c #D25F6D",
"=. c #D56372",
"-. c #D86873",
";. c #D86878",
":. c #D37877",
">. c #29844C",
",. c #2C8C50",
"<. c #2E9455",
"1. c #329959",
"2. c #33A35E",
"3. c #35AB62",
"4. c #37A964",
"5. c #3AB76B",
"6. c #38BA72",
"7. c #4BBB76",
"8. c #52B16E",
"9. c #7AA670",
"0. c #7BA871",
"q. c #76AC72",
"w. c #7F996D",
"e. c #3ECD7B",
"r. c #41CA75",
"t. c #4DC475",
"y. c #55C97C",
"u. c #44D97D",
"i. c #57D27F",
"p. c #69C47B",
"a. c #AA835E",
"s. c #B28975",
"d. c #849069",
"f. c #CB9775",
"g. c #D19B6F",
"h. c #D8A078",
"j. c #D8A878",
"k. c #D6A272",
"l. c #385D83",
"z. c #355B80",
"x. c #386188",
"c. c #376685",
"v. c #4D5B98",
"b. c #506A86",
"n. c #7F7D81",
"m. c #747688",
"M. c #6B708A",
"N. c #4E65A3",
"B. c #6170BA",
"V. c #696AAD",
"C. c #5878CE",
"Z. c #7F828A",
"A. c #7D89AB",
"S. c #46DC82",
"D. c #51D480",
"F. c #64D281",
"G. c #47EF87",
"H. c #47EE8A",
"J. c #48EE8C",
"K. c #47E484",
"L. c #55E689",
"P. c #4EF68E",
"I. c #47EA91",
"U. c #49EC92",
"Y. c #4CF291",
"T. c #53F692",
"R. c #59F696",
"E. c #5EF799",
"W. c #5AEF93",
"Q. c #64F79D",
"!. c #67F79F",
"~. c #66F79E",
"^. c #65F79E",
"/. c #63F69C",
"(. c #63ED99",
"). c #678BDF",
"_. c #708FDE",
"`. c #7B97DD",
"'. c #5880E0",
"]. c #5483E3",
"[. c #678DE3",
"{. c #6F94E7",
"}. c #7EA1EC",
"|. c #89888E",
" X c #BE9184",
".X c #8787A8",
"XX c #9594B3",
"oX c #9CA0B0",
"OX c #A6A8B8",
"+X c #CC9488",
"@X c #D7B5A0",
"#X c #DDAF9E",
"$X c #F8D0B8",
"%X c #F4C6B1",
"&X c #859BDA",
"*X c #8A91C7",
"=X c #99A3D5",
"-X c #A8A0C8",
";X c #B7B7C9",
":X c #A9B4DA",
">X c #ACBDEF",
",X c #959FD6",
"<X c #BEC2D9",
"1X c #B6C4F0",
"2X c #C5C6D8",
"3X c #C8C8D8",
"4X c #C6C5D3",
"5X c #D1D1DC",
"6X c #D7D7E8",
"7X c #D9DEF6",
"8X c #DCE0F7",
"9X c #E8E8F8",
"0X c #E6E6F8",
/* pixels */
"P.P.P.P.P.P.P.P.P.P.P.P.P.P.P.P.P.P.P.P.P.P.P.P.P.P.P.P.P.P.P.P.P.P.P.P.P.P.P.P.P.P.P.P.P.P.P.P.P.P.P.P.P.P.P.P.P.P.P.P.P.P.P.P.",
"P.P.P.P.P.P.P.P.P.P.P.P.P.P.P.P.P.P.P.P.P.P.P.P.P.P.P.P.P.P.P.P.P.P.P.P.P.P.P.P.P.P.P.P.P.P.P.P.P.P.P.P.P.P.P.P.P.P.P.P.P.P.P.P.",
"P.P.P.P.P.P.P.P.P.P.P.P.P.P.P.P.P.P.P.P.L.0.0.0.0.0.0.0.9.9.9.9.9.9.9.9.9.9.9.L.P.P.P.P.P.P.P.P.P.P.P.P.P.P.P.P.P.P.P.P.P.P.P.P.",
"P.P.P.P.P.P.P.P.P.P.P.P.P.P.P.P.P.P.P.P.F.! ~ ~ ~ ~ ~ ~ ~ ~ ~ ~ ~ ~ ~ ~ ^ ^ ^ p.P.P.P.P.P.P.P.P.P.P.P.P.P.P.P.P.P.P.P.P.P.P.P.P.",
"P.P.P.P.P.P.P.P.P.P.P.P.P.P.P.P.P.P.P.P.F.! ~ ~ ~ ~ ~ ~ ~ ~ ~ ~ ~ ~ ~ ~ ~ ~ ~ p.P.P.P.P.P.P.P.P.P.P.P.P.P.P.P.P.P.P.P.P.P.P.P.P.",
"P.P.P.P.P.P.P.P.P.P.P.P.P.P.P.p.{ { { {  .%.%.%.%.%.%.%.%.%.%.%.%.%.%.%.%.%.%. .{ { { { q.P.P.P.P.P.P.P.P.P.P.P.P.P.P.P.P.P.P.P.",
"P.P.P.P.P.P.P.P.P.P.P.P.P.P.P.q.~ ~ ~ ~ ` =.;.;.;.;.;.;.;.;.;.;.;.;.;.;.;.;.;.+.~ ~ ~ ~ 9.P.P.P.P.P.P.P.P.P.P.P.P.P.P.P.P.P.P.P.",
"P.P.P.P.P.P.P.P.P.P.P.P.P.i.y.w.+.+.+.+.@.=.;.;.;.;.;.;.;.;.;.;.;.;.;.;.;.;.;.@.+.+.+.+.d.y.i.J.P.P.P.P.P.P.P.P.P.P.P.P.P.P.P.P.",
"P.P.P.P.P.P.P.P.P.P.P.P.L.S Z _ ;.;.;.;.;.-.-.;.;.;.;.;.;.;.;.-.-.-.;.;.;.;.;.;.;.;.-.-.] Z S D.P.P.P.P.P.P.P.P.P.P.P.P.P.P.P.P.",
"P.P.P.P.P.P.P.P.P.P.P.P.L.S Z _ ;.;.;.;.;.-.-.;.;.;.;.;.;.;.;.-.-.-.;.;.;.;.;.;.;.;.-.-.] Z S D.P.P.P.P.P.P.P.P.P.P.P.P.P.P.P.P.",
"P.P.P.P.T.T.T.T.P.P.4.l z _ ] X.;.;.;.;.=.@.@.@.@.@.@.@.@.@.@.@.@.@.@.@.@.@.@.=.;.;.;.;.X.] ] z k 2.P.P.P.G.G.P.P.P.P.P.P.P.P.P.",
"R.R.R.R.R.R.R.R.R.R.l   X X.;.;.;.;.;.;.*.~ ~ ~ ~ ~ ~ ~ ~ ~ ~ ~ ~ ~ ~ ~ ~ ~ ~ *.;.;.;.;.;.;.&.@   0 P.P.P.J.J.J.P.P.P.P.P.P.P.P.",
"E.E.E.E.E.E.E.E.L.L.z X o X.=.=.=.=.=.=.*.! ~ ~ ~ ~ ~ ~ ~ ~ ~ ~ ~ ~ ~ ~ ~ ~ ~ %.=.=.=.=.=.=.&.$ X w K.K.J.U.I.J.J.P.P.P.P.P.P.P.",
"^.^.!.!.!.!.!.y.= = 5 Y Y ! ! ! ` ` ` ` +.*.=.=.=.=.=.=.=.=.=.=.=.=.=.=.=.=.=.#.` ` ` ` ` ` ! Y U 6 = = 5.U.I.I.J.G.P.P.P.P.P.P.",
"!.!.!.!.!.!.!.7.    2 ~ ~ ~ ~ ~ ~ ~ ~ ~ ` =.;.;.;.;.;.;.;.;.;.;.;.;.;.;.;.;.;.+.~ ~ ~ ~ ~ ~ ~ ~ ^ 6     4.U.I.I.J.G.P.P.P.P.T.T.",
"!.!.!.!.!.!.!.7.    2 ~ ~ ~ ~ ! @.@.@.@.&.=.;.;.;.;.;.;.;.;.;.;.;.;.;.;.;.;.;.&.@.@.@.@.` ~ ~ ~ ^ 6     4.I.I.J.J.P.P.P.T.T.R.R.",
"!.!.!.!.!.!.!.7.    2 ~ ~ ~ ~ @.;.;.;.;.;.;.;.;.;.;.;.;.;.;.;.;.;.;.;.;.;.;.;.;.;.;.;.;.@.~ ~ ~ ~ 6     3.J.J.J.P.P.P.T.R.R.E.E.",
"!.!.!.!.!.!.!.7.    2 ~ ~ ~ ~ @.;.;.;.;.;.;.;.;.;.;.;.;.;.;.;.;.;.;.;.;.;.;.;.;.;.;.;.;.@.~ ~ ~ ~ 6     3.H.G.P.P.P.T.R.R./.!.!.",
"!.!.!.!.!.!.!.7.    2 Q Q ~ ~ ! #.#.*.;.;.-.-.;.;.;.;.;.;.;.;.;.-.-.;.;.;.;.;.;.;.*.#.#.! ~ ~ ~ ~ 6     3.G.P.P.P.T.T.R.E.!.!.!.",
"!.!.!.!.!.!.!.7.    2 Q Q ~ ~ ~ ~ ~ %.;.;.-.-.;.;.;.;.;.;.;.;.-.-.-.;.;.;.;.;.;.;.%.Q Q ~ ~ ~ ~ ~ 6     4.T.T.T.T.R.R.E./.!.!.!.",
"!.!.!.!.!.!.!.D.* * 5 U U ^ ~ ~ ~ ~ &.*.*.*.*.*.*.*.*.*.*.*.*.*.*.*.*.*.*.*.*.*.*.&.Q Q ~ ~ ^ Y U 6 * * 7.R.R.R.E.E.E./.!.!.!.!.",
"!.!.!.!.!.!.!.!.(.(.z X o Y ~ ~ ~ ~ ~ ~ ~ ~ ~ ~ ~ ~ ~ ~ ~ ~ ~ ~ ~ ~ ~ ~ ~ ~ ~ ~ ~ ~ ~ ~ ~ ~ W o X q (.(././././.!.!./.!.!.!.!.!.",
"!.!.!.!.!.!.!.!.!.!.z   X U ~ ~ ~ ~ ~ ~ ~ ~ ~ ~ ~ ~ ~ ~ ~ ~ ~ ~ ~ ~ ~ ~ ~ ~ ~ ~ ~ ~ ~ ~ ~ ~ W o   q !.!.!.!.!.!.!.!.!.!.!.!.!.!.",
"!.!.!.!.!.!.!.!.!.!.z   X Y ~ ~ ~ ~ ~ ~ ~ ~ ~ ~ ~ ~ ~ ~ ~ ~ ~ ~ ~ ~ ~ ~ ~ ~ ~ ~ ~ ~ ~ ~ ~ ~ W o   q E./.!.!.!.!.!.!.!.!.!.!.!.!.",
"!.!.!.!.!.!.!.!.!.!.z   X Y ~ ~ ~ ~ ~ ~ ~ ~ ~ ~ ~ ~ ~ ~ ~ ~ ~ ~ ~ ~ ~ ~ ~ ~ ~ ~ ~ ~ ~ ~ ~ ~ W o   q R.E./.!.!.!.!.!.!.!.!.!.!.!.",
"!.!.!.!.!.!.!.!././.z   X U ~ ~ ~ ~ ~ ~ ~ ~ ~ ~ ~ ~ ~ ~ ~ ~ ~ ~ ~ ~ ~ ~ ~ ~ ~ ~ ~ ~ ~ ~ ~ ~ W o   q T.R.E.!.!.!.!.!.!.!.!.!.!.!.",
"!.!.!.!./././.y.: : I a.a.( R E ~ ~ ~ ~ ~ ~ ~ ~ ~ ~ ~ ~ ~ ~ ~ ~ ~ ~ ~ ~ ~ ~ ~ ~ ~ ~ ~ ~ E R ( | | I * * 7./.!.!.!.!.!.!.!.!.!.!.",
"E.E.E.E.R.R.R.7.    S j.k.) Z E ~ ~ ~ ~ ~ ~ ~ ~ ~ ~ ~ ~ ~ ~ ~ ~ ~ ~ ~ ~ ~ ~ ~ ~ ~ ~ ~ ~ E 7 ( f.h.[     4.E.E././.!.!././.E.E.E.",
"R.R.T.T.T.T.T.7.    r j.g.) Z R E E E W W ^ ~ ~ ~ ~ ~ ~ ~ ~ ~ ~ ~ ~ ~ ~ ~ ~ ~ W W E E E R Z ( f.h.[     4.R.R.E./.!.!./.E.R.R.R.",
"T.T.P.P.P.P.P.5.    r k.g.) Z C f f C Z R Q Q ~ ~ ~ ~ ~ ~ ~ ~ Q Q Q ~ ~ ~ ~ ~ R Z C s s N Z ( f.h.[     4.T.T.R.E.!.!.E.R.T.T.T.",
"P.P.P.P.P.P.P.5.    r k.g.) Z C f f C Z R Q Q ~ ~ ~ ~ ~ ~ ~ ~ Q Q Q ~ ~ ~ ~ ~ R Z C s s N Z ( f.h.[     3.P.T.R.E././.E.R.T.P.P.",
"P.P.P.P.P.P.P.u.<.<.t 5 5 % % < n n B N p a a a a a a a a a a a a a a a a a a p M B n n < % % 5 3 t <.1.u.P.T.T.R.E.E.R.T.T.P.P.",
"P.P.P.P.P.P.P.P.P.P.q         > x.x.x f f f f f f f f f f f f f f f f f f f f f f h x.x.>         0 P.P.P.P.P.T.T.R.R.T.T.T.P.P.",
"G.G.P.P.P.P.P.P.P.P.>.& &     > b.b.H g g g g g f f f f f f f f f f f f f g g g g x b.b.<     # & l P.P.P.P.P.P.T.T.T.T.P.P.P.P.",
"H.H.H.P.P.P.P.P.P.H.K.u.r.&   5 f.f.P l.l.l.l.c f f f f f f f f f f f f c l.l.l.l.M.f.f.e   # 6.S.K.P.P.P.P.P.P.P.P.P.P.P.P.P.P.",
"J.J.J.J.P.P.P.P.J.J.J.J.K.=   5 h.h.m.x.x.x.x.b f f f f f f f f f f f f c x.x.x.x.M.h.h.e   # e.J.P.P.P.P.P.P.P.P.P.P.P.P.P.P.P.",
"I.I.U.U.Y.Y.P.Y.U.U.U.U.H.>.q t S S P n.n.|.|.L c c c c c c c b b b c c L n.n.n.n.o.| | G q l S.P.P.P.P.P.P.P.P.P.P.P.P.P.P.P.P.",
"I.I.U.U.Y.Y.Y.Y.U.U.U.U.Y.Y.P.1.    } h.h.j.j.|.x.x.x.x.x.x.x.c.c.c.x.x.n.h.h.h.h.s.7 Z 8.H.G.P.P.P.P.P.P.P.P.P.P.P.P.P.P.P.G.G.",
"I.I.U.U.Y.P.P.Y.U.U.U.U.Y.P.P.1.    } h.h.j.j.|.x.x.x.x.x.x.x.c.c.c.x.x.n.h.h.h.h.s.Z Z 8.P.P.P.P.P.P.P.P.P.P.P.P.P.P.P.P.P.P.G.",
"U.U.U.Y.P.P.P.P.J.I.U.J.P.P.P.1.    4 D D V V m.XX.Xu - - - - - - < .XXXm.D D D D N @ $ 1.P.P.P.P.P.P.P.P.P.P.P.P.P.P.P.P.P.P.P.",
"Y.Y.Y.P.P.P.P.P.J.J.J.J.P.P.P.1.    < u u u s M.-X-X1             @ XX-Xm.f f f f <     ,.P.P.P.P.P.P.P.P.P.P.P.P.P.P.P.P.P.P.P.",
"P.P.P.P.P.P.G.G.H.H.H.H.G.5.3.z y y H L K s s L .X.X< + + + + + + 1 m..XM.f f K L J > > z 5.5.G.P.P.P.P.P.P.P.P.P.P.P.P.P.P.P.P.",
"P.P.P.P.P.P.P.P.G.G.G.H.u.&   u '.'.:X3XOXg u f f f f f f f f f f f f f f f f OX3X:X'.'.i   # u.P.P.P.P.P.P.P.P.P.P.P.P.P.P.P.P.",
"P.P.P.P.P.P.P.P.P.G.H.H.S.&   u '.'.:X3XOXg f f f f f f f f f f f f f f f f f OX3X:X'.'.i   # u.P.P.Y.P.P.P.P.P.P.P.P.P.P.P.P.P.",
"P.P.P.P.P.P.P.P.P.P.2.0 q v v v.C.'.=X;XoXg f P oXoXoXoX.XN.N.A.oXoXoXoXm.f f XX;X=XC.C.v.v v k q 2.P.P.P.P.P.P.P.P.P.P.P.P.P.P.",
"P.P.P.P.P.P.P.P.P.P.k   . v.B.C.C.C.*X-XXXg f .X9X9X9X0X1X'.'.1X9X9X9X9XoXu f .X-X,XC.C.C.B.N.O   q P.P.P.P.P.P.P.P.P.P.P.P.P.P.",
"P.P.P.P.P.P.P.P.K.S.z @ @ v.V.B.C.C.*XXX.XJ B oX9X9X8X7X>X'.'.>X7X8X0X9XOXB H .XXX*XC.C.B.V.N.1 @ k L.L.P.P.P.P.P.P.P.P.P.P.P.P.",
"P.P.P.P.P.P.P.i.S S s.@X#XX./ ( x x H H L ;X;X5X9X0X&X[.[.'.'.[.{.}.8X9X6X;X;XL H H x x F / ' #X@Xs.S S y.P.P.P.P.P.P.P.P.P.P.P.",
"P.P.P.P.P.P.P.y.Z Z  X$X%X$.~ R u u f f K 3X5X6X9X0X{.'.'.'.'.].].{.8X9X6X3X3XL f f f f R ~ ` %X$X+XZ Z 7.P.P.P.P.P.P.P.P.P.P.P.",
"P.P.P.P.P.P.P.t.5 5 s.$X%Xf.:.O.N p M f K 4X3X6X6X6X{.'.).&X&X[.].{.6X6X6X3X3XL f d M M ..:.:.%X$Xs.5 5 8.P.P.P.P.P.P.P.P.P.P.P.",
"P.P.P.P.P.P.P.5.    o.$X$X$X$X+XZ Z M f K 4X3X3X3X2X_.'.`.3X3X`.].).<X3X3X3X3XL f M A A  X$X$X$X$Xo.    3.P.P.P.P.P.P.P.P.P.P.P.",
"P.P.P.P.P.P.P.5.    o.$X$X$X$X+XZ Z M f K 4X3X3X3X2X_.'.`.3X3X`.].).<X3X3X3X3XL f M A A  X$X$X$X$Xo.    3.P.P.P.P.P.P.P.P.P.P.P.",
"P.P.P.P.P.P.P.K.3.3.G 3 e e e 1 $ $ 7 E ..4X3X3X3X2X_.'.`.3X3X&X'.).<X3X3X3X3X..E 7 $ $ 1 3 3 3 3 G 3.3.u.P.P.P.P.P.P.P.P.P.P.P.",
"P.P.P.P.P.P.P.P.Y.Y.l               7 ~ X.4X3X3X3X2X_.'.`.3X3X&X'.).<X3X3X3X3XX.~ T               8 P.P.P.P.P.P.P.P.P.P.P.P.P.P.",
"P.P.P.P.P.P.P.P.Y.Y.<.; ; ; ; &     6 E ..OXOX;X3X2X_.'._.:X:X`.'.).<X3X;XOXOX..E 7     & ; ; * ; l H.P.P.P.P.P.P.G.G.P.P.P.P.P.",
"P.P.P.P.P.P.P.P.P.P.P.P.P.P.P.1.    < f u f f Z.3X2X_.'.'.'.'.'.'.).<X3X.Xf f f f <     ,.P.P.G.J.J.J.J.P.P.P.P.P.J.J.J.P.P.P.P.",
"P.P.P.P.P.P.P.P.P.P.P.P.P.P.P.1.    < f f f f Z.3X2X_.'.'.'.'.'.'.).<X3X.Xf f f f <     ,.P.P.J.J.J.I.U.Y.P.P.Y.U.I.I.J.J.P.P.P.",
"P.P.P.P.P.P.P.P.P.P.P.P.P.P.P.1.    u b b b b J K K v i i i i i i v K K J b b b b u     ,.P.H.J.I.I.I.U.Y.Y.P.Y.U.I.I.I.J.G.H.G.",
"P.P.P.P.P.P.P.P.P.P.P.P.P.P.P.1.    j x.x.c.c.y                         , x.x.x.x.m     ,.P.G.J.I.I.I.U.Y.P.P.Y.U.U.I.I.J.G.G.G.",
"P.P.P.P.P.P.P.P.P.P.P.P.P.P.P.2.. . j z.z.c.c.y . . . . . . . . . . . . , z.z.z.z.m . . <.P.P.J.J.I.I.J.P.P.P.P.J.I.I.J.J.P.P.P.",
"P.P.P.P.P.P.P.P.P.P.P.P.P.P.P.K.r.r.8 O O O O k r.r.r.r.r.r.r.r.r.r.r.r.l O O O O 9 r.r.K.P.P.P.J.J.J.J.G.P.P.P.J.J.J.J.P.P.P.P.",
"P.P.P.P.P.P.P.P.P.P.P.P.P.P.P.P.P.P.8         l P.P.P.P.P.P.P.P.P.P.P.P.,.        9 P.P.P.P.P.P.P.G.H.H.G.G.P.G.H.H.G.P.P.P.P.P.",
"P.P.P.P.P.P.P.P.P.P.P.P.P.P.P.P.P.P.,.8 8 8 8 3.P.P.P.P.P.P.P.P.P.P.P.P.5.8 8 8 8 >.P.P.P.P.P.P.P.P.G.G.G.G.G.G.G.G.P.P.P.P.P.P.",
"P.P.P.P.P.P.P.P.P.P.P.P.P.P.P.P.P.P.P.P.P.P.P.P.P.P.P.P.P.P.P.P.P.P.P.P.P.P.P.P.P.P.P.P.P.P.P.P.P.P.G.G.G.G.G.G.G.G.P.P.P.P.P.P."
};
