/* XPM */
static char *_0461996d82b444bc77c05ddd7841c93ocr8i9FDHepOiJGu[] = {
/* columns rows colors chars-per-pixel */
"64 64 213 2 ",
"   c #000000",
".  c #070909",
"X  c #18070A",
"o  c #110809",
"O  c #07180E",
"+  c #08180E",
"@  c #0A1218",
"#  c #0D1115",
"$  c #14181B",
"%  c #0D0F12",
"&  c #2B1816",
"*  c #35191C",
"=  c #290D10",
"-  c #122A19",
";  c #1B1D21",
":  c #1D252B",
">  c #133922",
",  c #282D37",
"<  c #322F33",
"1  c #211F27",
"2  c #5D2D33",
"3  c #4B3129",
"4  c #673537",
"5  c #6E3439",
"6  c #19482B",
"7  c #1C5732",
"8  c #1C4F30",
"9  c #204B33",
"0  c #225435",
"q  c #1E6137",
"w  c #23643C",
"e  c #674E3B",
"r  c #464C39",
"t  c #1C3243",
"y  c #383B43",
"u  c #2B3F6E",
"i  c #4A3E4A",
"p  c #33404B",
"a  c #38404F",
"s  c #384050",
"d  c #36465E",
"f  c #304B53",
"g  c #246E43",
"h  c #267645",
"j  c #3B6A4C",
"k  c #384C67",
"l  c #38536D",
"z  c #345476",
"x  c #314B70",
"c  c #48434A",
"v  c #54434A",
"b  c #474953",
"n  c #595459",
"m  c #4F5059",
"M  c #644344",
"N  c #794141",
"B  c #714040",
"V  c #715E4D",
"C  c #6A5E5B",
"Z  c #466459",
"A  c #706B5A",
"S  c #575565",
"D  c #4C5264",
"F  c #6D566D",
"G  c #5F6575",
"H  c #4A7568",
"J  c #64667C",
"K  c #706D6C",
"L  c #932F3A",
"P  c #8B3C49",
"I  c #993C45",
"U  c #A53241",
"Y  c #A43B45",
"T  c #B83848",
"R  c #B63648",
"E  c #BE3B51",
"W  c #8D5450",
"Q  c #BE4353",
"!  c #B94856",
"~  c #AC5354",
"^  c #996C58",
"/  c #9B7456",
"(  c #A26458",
")  c #9B4E76",
"_  c #995F65",
"`  c #8F7767",
"'  c #A47968",
"]  c #C14656",
"[  c #C54B5B",
"{  c #CB545F",
"}  c #C95263",
"|  c #CF5A6A",
" . c #C85964",
".. c #D25E6C",
"X. c #C94F62",
"o. c #D66676",
"O. c #D86873",
"+. c #D7697A",
"@. c #D86878",
"#. c #CF6A70",
"$. c #2A864D",
"%. c #2D8D52",
"&. c #309656",
"*. c #36AB63",
"=. c #3AB669",
"-. c #489364",
";. c #46B275",
":. c #7AA671",
">. c #7BAB74",
",. c #75AA72",
"<. c #3ECB7B",
"1. c #3CC16F",
"2. c #43C976",
"3. c #41D379",
"4. c #45D97D",
"5. c #69C77D",
"6. c #908B69",
"7. c #AB856B",
"8. c #B9896F",
"9. c #85A979",
"0. c #C29373",
"q. c #D29C75",
"w. c #D8A173",
"e. c #D8A178",
"r. c #D8A878",
"t. c #C1AE7C",
"y. c #355C80",
"u. c #396189",
"i. c #376584",
"p. c #59769B",
"a. c #4D6F94",
"s. c #787887",
"d. c #6B7292",
"f. c #667DB0",
"g. c #4C6BB0",
"h. c #5478CE",
"j. c #90798D",
"k. c #BF7787",
"l. c #D67787",
"z. c #7A90AC",
"x. c #52BA83",
"c. c #4FDB83",
"v. c #71D388",
"b. c #47EF87",
"n. c #47EE8A",
"m. c #48EE8C",
"M. c #4BE687",
"N. c #55E88B",
"B. c #4EF68E",
"V. c #52F38E",
"C. c #47EA91",
"Z. c #49EC92",
"A. c #4CF291",
"S. c #53F691",
"D. c #59F696",
"F. c #5EF799",
"G. c #58EA94",
"H. c #66F79E",
"J. c #62F096",
"K. c #69E691",
"L. c #69D3A2",
"P. c #68F0A3",
"I. c #5880E0",
"U. c #698CE1",
"Y. c #99819B",
"T. c #92939E",
"R. c #898C9C",
"E. c #999AA7",
"W. c #8495B3",
"Q. c #9891B5",
"!. c #B294B7",
"~. c #B59EB3",
"^. c #94A0B6",
"/. c #8EBEB8",
"(. c #B2A7B5",
"). c #B28294",
"_. c #D08A91",
"`. c #D2A692",
"'. c #E0AC88",
"]. c #E5B696",
"[. c #D697A7",
"{. c #C3A5AA",
"}. c #E4AEAF",
"|. c #8CD48C",
" X c #94F5BB",
".X c #F5CEB6",
"XX c #F8D0B8",
"oX c #EAC5AF",
"OX c #DDC1B7",
"+X c #A39BC2",
"@X c #91A5C1",
"#X c #9CABC0",
"$X c #A8A0C8",
"%X c #ADA6CA",
"&X c #ABB2C7",
"*X c #B7B7C6",
"=X c #B9BBC9",
"-X c #BDBCD3",
";X c #B4ABC8",
":X c #C3B3C6",
">X c #CDB4C2",
",X c #BAD6D2",
"<X c #C8C8D8",
"1X c #C5C3D5",
"2X c #D6D2D6",
"3X c #C1C1C7",
"4X c #F1D8CF",
"5X c #D4D4E4",
"6X c #DBDBEB",
"7X c #D2D6EA",
"8X c #E5E2F2",
"9X c #E8E8F8",
"0X c #F7F7F8",
/* pixels */
"B.B.B.B.B.B.B.B.B.B.B.B.B.B.B.B.B.B.B.B.A.B.B.B.B.B.B.B.B.B.B.B.B.B.B.B.B.B.B.B.B.B.B.B.B.B.B.B.B.B.B.B.B.B.B.B.B.B.B.B.B.B.B.B.",
"B.B.B.B.B.B.B.B.B.B.B.B.B.B.B.B.B.B.B.B.B.B.B.B.B.B.B.B.B.B.B.B.B.B.B.B.B.B.B.B.B.B.B.B.B.B.B.B.B.B.B.B.B.B.B.B.B.B.B.B.B.B.B.B.",
"B.B.B.B.B.B.B.B.B.B.B.B.B.B.B.B.B.B.B.B.B.B.B.B.B.B.,.>.:.:.:.:.:.:.:.:.:.:.:.N.B.B.B.B.B.B.B.B.B.B.B.B.B.B.B.B.B.B.B.B.B.B.B.B.",
"B.B.B.B.B.B.B.B.B.B.B.B.B.B.B.B.B.B.B.B.B.B.B.B.B.B.( T T T T T T T T T R R R 5.B.B.B.B.B.B.B.B.B.B.B.B.B.B.B.B.B.B.B.B.B.B.B.B.",
"B.B.B.B.B.B.B.B.B.B.B.B.B.B.B.B.B.B.B.B.B.B.B.B.B.V.( T T T T T T T T T T T T 5.B.B.B.B.B.B.B.B.B.B.B.B.B.B.B.B.B.B.B.B.B.B.B.B.",
"B.B.B.B.B.B.B.B.B.B.B.B.B.B.B.B.B.B.B.B.N./ ^ ^ ^ ^  .| | | | | | | | | | | | r 6 6 6 6 *.B.B.B.B.B.B.B.B.B.B.B.B.B.B.B.B.B.B.B.",
"B.B.B.B.B.B.B.B.B.B.B.B.B.B.B.B.B.B.B.B.v.Q T T T T ..@.@.@.@.@.@.@.@.@.@.@.@.*         %.B.B.B.B.B.B.B.B.B.B.B.B.B.B.B.B.B.B.B.",
"B.B.B.B.B.B.B.B.B.B.B.B.B.B.B.N.5.5.5.5.>.! ] ] ] ] | ....@.@.@.@.@.@.@.@.@.@.2 * * * * j =.=.M.B.B.B.B.B.B.B.B.B.B.B.B.B.B.B.B.",
"B.B.B.B.B.B.B.B.B.B.B.B.B.B.B.,.T T R R E @.@.@.@.@.Q T ] O.O.@.@.@.@.@.@.@.@.O.O.O.@.@.2   + 3.B.B.B.B.B.B.B.B.B.B.B.B.B.B.B.B.",
"B.B.B.B.B.B.B.B.B.B.B.B.B.B.B.,.T T R R E @.@.@.@.@.Q T ] O.O.@.@.@.@.@.@.@.@.O.O.O.@.@.2   O 3.B.B.B.B.B.B.B.B.B.B.B.B.B.B.B.B.",
"B.B.B.B.S.S.S.S.B.B.B.B.V.9.6.' } } X.X.} @.@.@.@.@.Q T ] @.@.@.@.@.@.@.@.@.@.@.@.@.@.@.2   O 3.B.B.B.B.B.b.b.B.B.B.B.B.B.B.B.B.",
"D.D.D.D.D.D.D.D.D.D.D.D.G.~ T [ @.@.@.@.@.@.@.@.@.@.Q T ] @.@.@.@.@.@.@.@.@.@.@.@.@.@.@.2   O 3.B.B.B.B.B.m.m.m.B.B.B.B.B.B.B.B.",
"F.F.F.F.F.F.F.F.F.F.J.K.K.~ T [ @.@.@.@.@.@.@.@.@.@.Q T ] @.@.@.@.@.@.@.@.@.@.@.@.@.@.@.4 o $ 1.M.M.B.A.Z.Z.C.m.m.B.B.B.B.B.B.B.",
"H.H.H.H.H.H.H.H.H.H.9.~ ~ | ..o.@.@.@.@.@.@.@.@.@.@.Q T ] @.@.@.@.@.@.@.@.@.@.@.@.@.@.@.! L L ; - h A.A.Z.Z.C.C.m.b.B.B.B.B.B.B.",
"H.H.H.H.H.H.H.H.H.H.6.T T o.@.@.@.@.@.@.@.@.@.@.@.@.Q T ] @.@.@.@.@.@.@.@.@.@.@.@.@.@.@.[ T U X   q B.A.Z.Z.C.C.m.b.B.B.B.B.S.S.",
"H.H.H.H.H.H.H.K.|.|.' [ [ o.@.@.@.@.@.@.@.@.@.@.@.@.Q T ] @.@.@.@.@.@.@.@.@.@.@.@.@.@.@.[ T U X   q B.m.m.C.C.m.m.B.B.B.S.S.D.D.",
"H.H.H.H.H.H.H.v.T T } @.@.@.@.@.@.@.@.@.@.@.@.@.@.@.Q T ] @.@.@.@.@.@.@.@.@.@.@.@.@.@.@.[ T U X   7 B.B.m.m.m.m.B.B.B.S.D.D.F.F.",
"H.H.H.H.H.H.H.v.T T } @.@.@.@.@.@.@.@.@.@.@.@.@.@.@.Q T ] @.@.@.@.@.@.@.@.@.@.@.@.@.@.@.[ T U X   7 B.b.n.n.b.B.B.B.S.D.D.H.H.H.",
"H.H.H.H.H.,.A `  . ...@.@.@.@.@.@.@.@.O.@.@.@.@.@.@.Q T ] O.O.@.@.@.@.@.@.@.@.@.O...] ] T T U X   7 b.b.b.b.B.B.B.S.S.D.F.H.H.H.",
"H.H.H.H.H.A N W O.O.@.@.@.@.@.@.@.@.O.O.O.@.@.@.@.@.Q T ] O.O.@.@.@.@.@.@.@.@.O.O.| T T T T U X   w S.S.S.S.S.S.S.D.D.F.H.H.H.H.",
"H.H.H.H.H.A 4 N O.O.@.@.@.@.@.@.@.@.@.O.O.@.@.l._._.#. .#._._.+.@.@.@.@.@.........{ T T T T U X   w D.D.D.D.D.D.F.F.F.H.H.H.H.H.",
"H.H.H.H.H.9   * @.@.@.@.@.@.@.@.@.@.@.@.@.@.@.}.8X8X8X8X8X8X8X[.@.@.@.@.} T T T T T T T T T U X   w H.H.H.H.H.H.H.H.H.H.H.H.H.H.",
"H.H.H.H.H.6   * @.@.@.@.@.@.@.@.@.@.@.@.@.@.@.}.9X9X9X9X9X9X9X[.@.@.@.@.} T T R T T T T T T U X   w H.H.H.H.H.H.H.H.H.H.H.H.H.H.",
"H.H.H.H.H.6   & } } ..@.@.@.@.@.@.@.@.@.l.[.[.~.@X@X@X@X@X@X@X~.[._. .} ] T T T T T T T T T U X   w F.H.H.H.H.H.H.H.H.H.H.H.H.H.",
"H.H.H.H.H.6   = T T } @.@.@.@.@.@.@.@.@.l.1X<XW.u.y.u.u.u.u.u.^.<X:X! T T T T T T T T T T T U X   w D.F.H.H.H.H.H.H.H.H.H.H.H.H.",
"H.H.H.H.H.9   & R R } @.@.@.@.@.@.@.@.@.l.1X1XW.u.u.u.u.u.u.u.^.1X:X! T T T T T T T T T T R U X   w S.D.F.H.H.H.H.H.H.H.H.H.H.H.",
"H.H.H.H.H.c.2.-.= = F !.!.!.!.!.!.!.>X>X(.p.p.z.&X&X&X&X&X*X*Xz.p.p.(.{.k.T T T T T T T I P 5 o   w S.D.F.H.H.H.H.H.H.H.H.H.H.H.",
"F.F.F.F.D.D.D.;.    S $X$X$X$X$X$X$X1X2X=Xu.u.z.<X<X<X<X<X2X2Xz.u.a.-X<X_.T T T T T T T I N 5 o   w S.S.D.F.F.H.H.H.H.H.H.F.F.F.",
"D.D.S.S.S.S.S.2.8 8 Z s.s.j.Y.Y.Y.Y.;X1X&Xp.p.W.-X-X-X-X-X1X1XW.p.f.=X-X).Y Y Y Y I P P 5 3 3 6 8 &.S.S.S.D.D.F.H.H.H.H.F.D.D.D.",
"S.S.B.B.B.B.B.B.B.S.g   . 4 N e N N Y.$X$X$X$X$X$X$X$X$X$X$X$X$X$X$X$X$Xj.N N B B M s s ;   O 3.B.B.B.S.S.S.S.D.F.H.H.F.D.S.S.S.",
"B.B.B.B.B.B.B.B.B.B.g   . 4 N N N N Y.$X$X$X$X$X$X$X$X$X$X$X$X$X$X$X$X$Xj.N N B B M s s ;   O 3.B.B.B.B.B.B.S.D.F.H.H.F.D.S.B.B.",
"B.B.B.B.B.B.B.B.B.B.1.&.&.M N N N N i i S +X$X~.`.`.s.J j.`.`.j.J J J J S i v c c c s s ;   O <.B.B.B.B.B.B.S.S.D.F.F.D.S.S.B.B.",
"B.B.B.B.B.B.B.B.B.B.B.B.M.V N N N N &   1 ^.$X{.e.q.n s C e.e.A s s s s s s s s s s s s ;   O <.m.B.B.B.B.B.A.S.S.D.D.S.S.S.B.B.",
"b.b.B.B.B.B.B.B.B.B.B.B.M.V N N W W &   1 $X;X{.e.q.n s C e.e.` m b s s s s s s s s s s ;   O <.m.b.B.B.B.B.B.B.S.S.S.S.B.B.B.B.",
"n.n.n.B.B.B.B.B.B.n.n.B.M.V 5 ( q.q.3   , 6X8XOXe.q.n s C e.e.q.0.8.b s s s s s s s s s ;   O <.m.b.B.B.B.B.B.B.B.B.B.B.B.B.B.B.",
"n.n.m.m.B.B.B.B.m.m.m.m.M.V 5 ^ e.e.3   < 6X9XOXe.q.n s C e.e.e.e.0.b s s s s s s s s s ;   O <.m.B.B.B.B.B.B.B.B.B.B.B.B.B.B.B.",
"C.C.Z.Z.A.A.B.A.Z.Z.Z.m.N.6.( 8.].].` V ` 4X4X.X].].` A ' e.e.e.e.0.b s s s s , : : : : 9 w h c.B.B.B.B.B.B.B.B.B.B.B.B.B.B.B.B.",
"C.C.Z.Z.A.A.A.A.Z.C.Z.Z.N.t.e.].XXXXXXXXXXXXXXXXXX.X'.e.e.r.r.e.e.0.b s s s s #         $.n.b.B.B.B.B.B.B.B.B.B.B.B.B.B.B.B.b.b.",
"C.C.Z.Z.A.B.B.A.Z.Z.C.Z.N.t.e.].XXXXXXXXXXXXXXXXXX.X'.e.e.r.r.e.e.0.b s s s s #         $.b.B.B.B.B.B.B.B.B.B.B.B.B.B.B.B.B.B.b.",
"Z.Z.Z.A.B.B.B.B.m.C.C.m.m.K.v.|.'.'.oXXXXXXXXX].'.'.e.e.e.w.w.` C n s s , # # .   - =.=.4.B.B.B.B.B.B.B.B.B.B.B.B.B.B.B.B.B.B.B.",
"A.A.A.B.B.B.B.B.m.m.m.m.B.B.B.|.e.e.oXXXXXXXXX].e.e.e.q.e.w.w.A s s s s :         6 B.B.B.B.B.B.B.B.B.B.B.B.B.B.B.B.B.B.B.B.B.B.",
"B.B.B.B.B.B.b.b.n.n.n.n.b.B.B.|.].]..X4X4X`.`._.7.7.7.7.7./ / K G G J J m < < y c j =.=.4.B.B.B.B.B.B.B.B.B.B.B.B.B.B.B.B.B.B.B.",
"B.B.B.B.B.B.B.B.b.b.b.n.n.n.m. X0X0X0X0X2XN N v s s s a ,     s.<X<X<X<X<X<X<X8X9X(.    %.B.B.B.B.B.B.B.B.B.B.B.B.B.B.B.B.B.B.B.",
"B.B.B.B.B.B.B.B.B.b.n.n.n.m.m. X0X0X0X0X2XN N v s s s s ,     s.<X<X<X<X<X<X<X8X9X(.    %.B.B.B.B.B.B.B.B.B.B.B.B.B.B.B.B.B.B.B.",
"B.B.B.B.B.B.B.B.B.B.n.n.n.n.Z.P. X X,X<X:Xj.j.F s s R.^.T.K K G n G -X<X5X6X6XE.R.G     %.B.B.B.B.B.B.B.B.B.B.B.B.B.B.B.B.B.B.B.",
"B.B.B.B.B.B.B.B.B.B.n.m.n.C.C.Z.A.S./.$X$X$X$Xd.s s 1X9X6X<X<Xb   ; *X<X5X9X9XJ s ,     %.B.B.B.B.B.B.B.B.B.B.B.B.B.B.B.B.B.B.B.",
"B.B.B.B.B.B.B.B.B.B.b.m.C.C.C.Z.G.G./.%X%XQ.Q.d.d k -X6X7X=X=Xc   ; *X<X5X9X9XJ s ,     %.B.B.B.B.B.B.B.B.B.B.B.B.B.B.B.B.B.B.B.",
"B.B.B.B.B.B.B.B.B.B.B.m.m.C.C.L.#X#X5X8X=X; $ x h.h.U.U.f.D D ;   ; *X<X5X9X9XJ s ,     %.B.B.B.B.B.B.B.B.B.B.B.B.B.B.B.B.B.B.B.",
"B.B.B.B.B.B.B.B.B.B.B.B.m.m.m.L.$X$X5X0X3X.   u I.I.I.I.g.s s $   $ *X<X5X9X9XJ y ,     %.B.B.B.B.B.B.B.B.B.B.B.B.B.B.B.B.B.B.B.",
"B.B.B.B.B.B.B.B.B.B.B.B.B.b.n.x.G G -X9X=X.   u I.I.I.I.g.a a $   $ *X<X5X9X9XE.s.S     %.B.B.B.B.B.B.B.B.B.B.B.B.B.B.B.B.B.B.B.",
"B.B.B.B.B.B.B.B.B.B.B.B.B.B.B.&.    E.9X=X.   u I.I.h.h.g.p p $   ; *X<X5X9X9X5X<XT.    %.B.B.B.B.B.B.B.B.B.B.B.B.B.B.B.B.B.B.B.",
"B.B.B.B.B.B.B.B.B.B.B.B.B.B.B.&.    E.9X=X.   u I.I.I.h.g.p p $   ; *X<X5X9X9X5X<XT.    %.B.A.B.B.B.B.B.B.B.B.B.B.B.B.B.B.B.B.B.",
"B.B.B.B.B.B.B.B.B.B.B.B.B.B.B.4.*.*.Z c v ^ ^ _ ) ) ) ) F a a f d f y y s.5X5XG y j *.*.4.B.B.B.B.B.B.B.B.B.B.B.B.B.B.B.B.B.B.B.",
"B.B.B.B.B.B.B.B.B.B.B.B.B.B.B.B.B.B.7   & q.e.#.T T T T P s s z u.z .   S <X<X<   6 B.B.B.B.B.B.B.B.B.B.B.B.B.B.B.B.B.B.B.B.B.B.",
"B.B.B.B.B.B.B.B.B.B.B.B.B.B.B.B.B.B.q % < q.e.#. . .! Y P s s k z x .   c E.E.f > w B.B.B.B.B.B.B.n.n.B.B.B.B.B.B.b.b.B.B.B.B.B.",
"B.B.B.B.B.B.B.B.B.B.B.B.B.B.B.B.B.B.H a n q.e.].XX.X_ N M s s s s y .         =.B.B.B.B.B.B.B.B.m.m.m.m.B.B.B.B.B.m.m.m.B.B.B.B.",
"B.B.B.B.B.B.B.B.B.B.B.B.B.B.B.B.B.B.H a n q.e.].XX.X_ N M s s s s y .         =.B.B.B.B.B.B.B.m.m.n.C.m.A.B.B.A.Z.C.C.m.m.B.B.B.",
"B.B.B.B.B.B.B.B.B.B.B.B.B.B.B.B.B.B.;.;.-.e e K T.T.G S D l l l l d .   > $.$.4.B.B.B.B.B.B.n.m.n.C.C.Z.A.A.B.A.Z.C.C.C.m.b.n.b.",
"B.B.B.B.B.B.B.B.B.B.B.B.B.B.B.B.B.B.B.B.2..   t u.u.u.u.u.i.i.u.y.z .   g B.B.B.B.B.B.B.B.B.b.m.C.C.C.Z.A.B.B.A.Z.Z.C.C.m.b.b.b.",
"B.B.B.B.B.B.B.B.B.B.B.B.B.B.B.B.B.B.B.B.2.+ . t y.y.y.y.y.i.i.y.y.x @ . h B.B.B.B.B.B.B.B.B.B.m.m.C.C.m.B.B.B.B.m.C.C.m.m.B.B.B.",
"B.B.B.B.B.B.B.B.B.B.B.B.B.B.B.B.B.B.B.B.m.2.2.g @ @ @ @ @ @ @ @ @ > =.2.c.B.B.B.B.B.B.B.B.B.B.B.m.m.m.m.b.B.B.B.m.m.m.m.B.B.B.B.",
"B.B.B.B.B.B.B.B.B.B.B.B.B.B.B.B.B.B.B.B.B.B.B.h                   - M.B.B.B.B.B.B.B.B.B.B.B.B.B.B.b.n.n.b.b.B.b.n.n.b.B.B.B.B.B.",
"B.B.B.B.B.B.B.B.B.B.B.B.B.B.B.B.B.B.B.B.B.B.B.*.7 7 7 7 7 7 7 7 7 g M.B.B.B.B.B.B.B.B.B.B.B.B.B.B.B.b.b.b.b.b.b.b.b.B.B.B.B.B.B.",
"B.B.B.B.B.B.B.B.B.B.B.B.B.B.B.B.B.B.B.B.B.B.B.B.B.B.B.B.B.B.B.B.B.B.B.B.B.B.B.B.B.B.B.B.B.B.B.B.B.B.b.b.b.b.b.b.b.b.B.B.B.B.B.B."
};
