/* XPM */
static char *_6378a24391d4b9edae85e528f62c8c2YmyPSIr1FxA0HQPp[] = {
/* columns rows colors chars-per-pixel */
"64 64 217 2 ",
"   c #000000",
".  c #0C0405",
"X  c #070C09",
"o  c #0D1215",
"O  c #15181D",
"+  c #131519",
"@  c #0A0F0C",
"#  c #271916",
"$  c #381519",
"%  c #0D2918",
"&  c #0D2917",
"*  c #11341E",
"=  c #0F331D",
"-  c #35281E",
";  c #181E25",
":  c #183025",
">  c #29292C",
",  c #382A24",
"<  c #262B35",
"1  c #2B323D",
"2  c #333338",
"3  c #3B392C",
"4  c #4A2529",
"5  c #463932",
"6  c #683538",
"7  c #72353B",
"8  c #18472A",
"9  c #1C5632",
"0  c #205034",
"q  c #1F6239",
"w  c #5F5039",
"e  c #3A3C48",
"r  c #1F354B",
"t  c #753C49",
"y  c #33404B",
"u  c #3D404D",
"i  c #384050",
"p  c #26494E",
"a  c #256D41",
"s  c #2F7149",
"d  c #297546",
"f  c #396A51",
"g  c #294461",
"h  c #2A4A65",
"j  c #31477C",
"k  c #375575",
"l  c #3E7261",
"z  c #42424D",
"x  c #584148",
"c  c #484B59",
"v  c #514E58",
"b  c #50555F",
"n  c #664044",
"m  c #784040",
"M  c #724341",
"N  c #735148",
"B  c #665C5B",
"V  c #76655D",
"C  c #6C6A56",
"Z  c #494E62",
"A  c #4C5873",
"S  c #5A6171",
"D  c #556D74",
"F  c #65656E",
"G  c #686777",
"H  c #76767C",
"J  c #796B6E",
"K  c #406344",
"L  c #9A2F3C",
"P  c #892C37",
"I  c #933C44",
"U  c #853C4C",
"Y  c #B93949",
"T  c #B73449",
"R  c #B13D53",
"E  c #AB3A47",
"W  c #C03F55",
"Q  c #8D5350",
"!  c #B2424C",
"~  c #BE4151",
"^  c #B84855",
"/  c #AD4F53",
"(  c #9A6B59",
")  c #A16958",
"_  c #B85C6D",
"`  c #876F64",
"'  c #937B61",
"]  c #9C7B6C",
"[  c #8B6A7D",
"{  c #B66462",
"}  c #C54B5B",
"|  c #C34856",
" . c #CA535F",
".. c #CA5363",
"X. c #CE5A67",
"o. c #D15D6D",
"O. c #D35F70",
"+. c #D4626D",
"@. c #D56474",
"#. c #D86873",
"$. c #D86878",
"%. c #D27377",
"&. c #C6665D",
"*. c #2E8B51",
"=. c #2E9254",
"-. c #2E965B",
";. c #339B5B",
":. c #318450",
">. c #33A35D",
",. c #39A863",
"<. c #3CBA6C",
"1. c #42A869",
"2. c #4CB371",
"3. c #74AC74",
"4. c #42CA75",
"5. c #68C47C",
"6. c #8C8565",
"7. c #819A6D",
"8. c #918266",
"9. c #B58C71",
"0. c #B78A77",
"q. c #AD876E",
"w. c #B4B47D",
"e. c #C89773",
"r. c #D78D7A",
"t. c #D8A273",
"y. c #D8A078",
"u. c #D8A878",
"i. c #C9A87A",
"p. c #386188",
"a. c #386888",
"s. c #4D5C84",
"d. c #5C7A9C",
"f. c #536097",
"g. c #6D7389",
"h. c #4B68A8",
"j. c #6874C7",
"k. c #90768D",
"l. c #A57688",
"z. c #C9788D",
"x. c #D67C8B",
"c. c #6885A6",
"v. c #7787AC",
"b. c #7C91AE",
"n. c #4DD783",
"m. c #5ADB84",
"M. c #54CC82",
"N. c #62D281",
"B. c #64CF80",
"V. c #4AE685",
"C. c #47EF87",
"Z. c #47EE8A",
"A. c #49EE8C",
"S. c #46E482",
"D. c #56E689",
"F. c #4EF68E",
"G. c #47EA91",
"H. c #49EC92",
"J. c #4CF291",
"K. c #53F692",
"L. c #59F796",
"P. c #5EF799",
"I. c #56EF93",
"U. c #66F79E",
"Y. c #71D6A5",
"T. c #70F7A4",
"R. c #5880E0",
"E. c #838593",
"W. c #95989E",
"Q. c #9E8BAA",
"!. c #9D99BE",
"~. c #9995B6",
"^. c #9098AE",
"/. c #A49BBB",
"(. c #95B0BB",
"). c #A9A7B5",
"_. c #AEA8B0",
"`. c #BC9F8D",
"'. c #D78695",
"]. c #CC908F",
"[. c #D6A383",
"{. c #CAAD96",
"}. c #E8B898",
"|. c #DE9AA8",
" X c #CA98A8",
".X c #CAADBD",
"XX c #CEACA4",
"oX c #E1AFBF",
"OX c #88CE82",
"+X c #96F7BB",
"@X c #8FE39F",
"#X c #DFC0B1",
"$X c #EFC2A5",
"%X c #EDC4AE",
"&X c #F4CCB3",
"*X c #F8D0B8",
"=X c #EDC9B0",
"-X c #A8A0C8",
";X c #A8A6C3",
":X c #B6B2CF",
">X c #B8B6CA",
",X c #ADB1CE",
"<X c #AB9FC1",
"1X c #C1BCD9",
"2X c #A7C4C7",
"3X c #B8C5F0",
"4X c #C4C4D4",
"5X c #C9C9D8",
"6X c #D0D0D8",
"7X c #CCC5CC",
"8X c #F0D7CA",
"9X c #DADAEA",
"0X c #D5D5E5",
"qX c #E2E2F2",
"wX c #E8E8F8",
"eX c #F4F6F7",
"rX c #F8E4D9",
/* pixels */
"F.F.F.F.F.F.F.F.F.F.F.F.F.F.F.F.F.F.F.F.F.F.F.F.F.F.F.F.F.F.F.F.F.F.F.F.F.F.F.F.F.F.F.F.F.F.F.F.F.F.F.F.F.F.F.F.F.F.F.F.F.F.F.F.",
"F.F.F.F.F.F.F.F.F.F.F.F.F.F.F.F.F.F.F.F.m.8.' ' ' ' ' ' ' ' ' ' ' 6.V.F.F.F.F.F.F.F.F.F.F.F.F.F.F.F.F.F.F.F.F.F.F.F.F.F.F.F.F.F.",
"F.F.F.F.F.F.F.F.F.F.F.F.F.F.F.F.F.F.F.F.N.Y Y Y Y Y Y Y Y Y Y Y Y / D.F.F.F.F.F.F.F.F.F.F.F.F.F.F.F.F.F.F.F.F.F.F.F.F.F.F.F.F.F.",
"F.F.F.F.F.F.F.F.F.F.F.F.F.F.F.V.4.4.4.4.2.^ ~ ~ ~ ~ ~ ~ ~ ~ ~ ~ ~ / 5.N.N.5.5.D.F.F.F.F.F.F.F.F.F.F.F.F.F.F.F.F.F.F.F.F.F.F.F.F.",
"F.F.F.F.F.F.F.F.F.F.F.F.F.F.F.>.X X X X # O.@.@.@.@.@.@.@.@.@.@.@.@.^ ! ! ! ! 5.F.F.F.F.F.F.F.F.F.F.F.F.F.F.F.F.F.F.F.F.F.F.F.F.",
"F.F.F.F.F.F.F.F.F.F.F.F.F.F.F.;.        # @.$.$.$.$.$.$.$.$.$.$.$.@.Y Y Y Y Y 5.F.F.F.F.F.F.F.F.F.F.F.F.F.F.F.F.F.F.F.F.F.F.F.F.",
"F.F.F.F.F.F.F.F.F.F.F.F.A.=.:.K 6 6 6 6 t @.$.$.$.$.$.$.#.#.#.X.....} } } } } 8.7.7.7.7.B.F.F.F.F.F.F.F.F.F.F.F.F.F.F.F.F.F.F.F.",
"F.F.F.F.F.F.F.F.F.F.F.F.V.%   4 $.$.#.#.#.$.$.$.$.$.$.$.#.#.#.| Y Y @.$.$.$.$.W T T Y Y 3.F.F.F.F.F.F.F.F.F.F.F.F.F.F.F.F.F.F.F.",
"F.F.F.F.F.F.F.F.F.F.F.F.V.%   4 $.$.#.#.#.$.$.$.$.$.$.$.#.#.#.| Y Y @.$.$.$.$.W T T Y Y 3.F.F.F.F.F.F.F.F.F.F.F.F.F.F.F.F.F.F.F.",
"F.F.F.F.F.F.F.F.F.F.F.F.V.%   4 $.$.#.#.#.$.$.$.$.$.$.$.#.#.#.} Y ~ @.$.$.$.$.O.o.o.o.o.{ ) ( m.F.F.F.F.F.F.F.F.F.F.F.F.F.F.F.F.",
"F.F.F.F.K.K.K.K.F.F.F.F.V.%   4 $.$.$.$.$.$.$.$.$.$.$.$.$.$.$.} Y ~ @.$.$.$.$.$.$.$.$.@.} Y / m.F.F.F.F.F.C.Z.F.F.F.F.F.F.F.F.F.",
"L.L.L.L.L.L.L.L.L.L.4.,.,., $ 7 $.$.$.$.$.$.$.$.$.$.$.$.$.$.$.} Y ~ @.$.$.$.$.$.$.$.$.$...| ^ 3.3.N.F.F.F.A.A.A.F.F.F.F.F.F.F.F.",
"P.P.P.P.P.P.P.P.P.P.s   . L Y } $.$.$.$.$.$.$.$.$.$.$.$.$.$.$.} Y Y @.$.$.$.$.$.$.$.$.$.$.$.@.Y Y 6.F.J.H.H.G.A.A.F.F.F.F.F.F.F.",
"U.U.U.U.U.U.U.U.U.U.s   . L Y } $.$.$.$.$.$.$.$.$.$.$.$.$.$.$.} Y Y @.$.$.$.$.$.$.$.$.$.$.$.@.Y Y 6.J.J.H.H.G.G.A.C.F.F.F.F.F.F.",
"U.U.U.U.U.U.U.U.U.U.s   . L Y } $.$.$.$.$.$.$.$.$.$.$.$.$.$.$.} Y Y @.$.$.$.$.$.$.$.$.$.$.$.@.X...{ 6.6.N.H.G.G.A.Z.F.F.F.F.K.K.",
"U.U.U.U.U.U.U.U.U.U.s   . L Y } $.$.$.$.$.$.$.$.$.$.$.$.$.$.$.} Y Y @.$.$.$.$.$.$.$.$.$.$.$.$.$.@...Y Y 3.G.G.A.A.F.F.F.K.K.L.L.",
"U.U.U.U.U.U.U.U.U.U.s   . L Y | @.@.@.#.#.$.$.$.$.$.$.$.$.#.#.} Y Y @.$.$.$.$.#.#.#.$.$.$.$.$.$.$.X.Y Y 3.n.n.A.F.F.F.K.L.P.P.P.",
"U.U.U.U.U.U.U.U.U.U.s   . L Y Y Y Y X.#.#.$.$.$.$.$.$.$.#.#.#.} Y Y @.$.$.$.$.#.#.#.$.$.$.$.$.$.$.#.+.+.Q N C F.F.F.K.L.P.U.U.U.",
"U.U.U.U.U.U.U.U.U.U.s   . L Y Y Y Y X.#.#.$.$.$.$.$.$.$.#.#.#.| Y Y @.$.$.$.$.#.#.#.$.$.$.$.$.$.#.#.#.#.Q m C F.F.K.K.L.P.U.U.U.",
"U.U.U.U.U.U.U.U.U.U.s   . L Y Y Y Y |  .......o.$.$.$.$.x.|.|.'.'.'.|.|.'.$.$.#.#.#.$.$.$.$.$.$.$.#.#.#.7 4 K K.K.L.L.P.U.U.U.U.",
"U.U.U.U.U.U.U.U.U.U.s   . L Y Y Y Y Y Y Y Y Y ..$.$.$.$.|.wXwXwXwXwXwXwXoX$.$.$.$.$.$.$.$.$.$.$.$.$.$.$.4   * L.P.P.P.U.U.U.U.U.",
"U.U.U.U.U.U.U.U.U.U.s   . L Y Y Y Y Y Y Y Y Y ..$.$.$.$.|.wXwXwXwXwXwXwXoX$.$.$.$.$.$.$.$.$.$.$.$.$.$.$.4   : U.U.U.U.U.U.U.U.U.",
"U.U.U.U.U.U.U.U.U.U.s   . L Y Y Y Y Y Y Y Y Y Y | |  X.X).c.c.c.c.c.c.c.^..X.Xx.$.$.$.$.$.$.$.$.$.X.| | $   : U.U.U.U.U.U.U.U.U.",
"U.U.U.U.U.U.U.U.U.U.s   . L Y Y Y Y Y Y Y Y Y Y Y Y .X5X(.p.p.p.p.p.p.p.b.5X5X'.$.$.$.$.$.$.$.$.$...Y Y $   : U.U.U.U.U.U.U.U.U.",
"U.U.U.U.U.U.U.U.U.U.s   . P E E Y Y Y Y Y Y Y ^ _ _ /.;X^.d.d.d.d.d.d.d.b.;X;X X'.x.z.z.z.z.z.z.z._ P P 3 : a U.U.U.U.U.U.U.U.U.",
"U.U.U.U.U.U.U.U.U.U.s   . 6 m I Y Y Y Y Y Y Y z.5X4Xd.p.c.6X5X5X5X5X5X5X^.p.p.,X6X4X-X-X-X-X-X-X-XG     1.U.U.U.U.U.U.U.U.U.U.U.",
"U.U.U.U.U.U.U.U.U.U.s   . 6 m I Y Y Y Y Y Y Y z.5X4Xd.p.c.6X5X5X5X5X5X5X^.p.p.,X6X4X-X-X-X-X-X-X-XG     1.U.U.U.U.U.U.U.U.U.U.U.",
"P.P.P.P.P.L.L.P.P.P.2.*.:., $ 4 t t U I I I I l.:X:X^.v.^.:X:X:X:X:X:X:X!.v.v.;X:X).[ [ [ [ [ v c f *.*.n.P.P.U.U.U.U.U.U.P.P.P.",
"L.L.K.K.K.K.K.K.K.L.L.L.D.%   O i i x M M m m k.-X-X-X-X-X-X-X-X-X-X-X-X-X-X-X-X-XQ.m m m m 6 .   q K.K.K.L.L.P.U.U.U.U.P.L.L.L.",
"K.K.F.F.F.F.F.F.F.K.K.K.V.%   O i i x n M M M [ !.!.!.!./.;X;X/.!./.<X<X<X-X-X!.~.k.m m m m 6 + @ a F.K.F.K.K.L.P.U.U.P.L.K.K.K.",
"F.F.F.F.F.F.F.F.F.F.F.F.V.%   O i i u z z z z c Z Z Z Z J [.[.J Z S ].[.`.-X-Xe O , m m m m N 2.4.n.F.F.F.F.K.L.P.U.U.P.L.K.F.F.",
"F.F.F.F.F.F.F.F.F.F.F.F.V.%   O i i i i i i i i i i i i B y.y.V i v e.y.{.-X-X<   # m m m m N n.F.F.F.F.F.F.K.K.L.P.P.L.K.K.F.F.",
"F.F.F.F.F.F.F.F.F.F.F.F.S.&   O i i i i i i i i i i B V ' y.y.V i v e.y.XX1X1X2   # ) ) Q m N n.A.F.F.F.F.F.F.K.K.L.L.K.K.K.F.F.",
"C.C.F.F.F.F.F.F.F.F.F.F.S.&   O i i i i i i i i i i 9.y.y.y.y.V i v e.y.#XwXwXe   , y.y.) m N n.A.Z.F.F.F.F.F.F.K.K.K.K.F.F.F.F.",
"Z.Z.Z.F.F.F.F.F.F.Z.Z.F.S.&   O i i e e i i i i i i 9.y.t.y.y.V i v e.y.#XwXwXe   , y.y.) 7 N n.A.C.F.F.F.F.F.F.F.F.F.F.F.F.F.F.",
"Z.Z.A.A.F.F.F.F.A.A.A.A.C.<.,.d + + + + ; e i i i i 9.y.t.u.u.9.q.9.}.$X&X8X8X`.0.`.$X$Xy.q.q.m.A.F.F.F.F.F.F.F.F.F.F.F.F.F.F.F.",
"G.G.H.H.J.J.F.J.H.G.H.H.J.F.F.;.        @ e i i i i 9.y.y.u.u.y.y.[.&X*X*X*X*X*X*X*X*X*X}.y.i.D.F.F.F.F.F.F.F.F.F.F.F.F.F.F.F.F.",
"G.G.H.H.J.J.J.J.H.H.H.H.J.J.F.,.* = X   X 1 1 e i i ] 9.e.u.u.t.y.[.$X%X&X*X*X*X*X&X%X%X{.w.w.D.F.F.F.F.F.F.F.F.F.F.F.F.F.F.C.C.",
"G.G.H.H.J.F.F.J.H.H.H.H.J.F.F.F.C.Z.9         ; i i i i B t.t.t.y.y.y.y.}.*X*X*X*X$Xy.y.OXC.A.F.F.F.F.F.F.F.F.F.F.F.F.F.F.F.F.C.",
"H.H.H.J.F.F.F.F.A.G.G.A.F.F.F.F.F.K.9         ; i i i i B t.t.t.y.y.y.y.}.*X*X*X*X$Xt.t.OXF.F.F.F.F.F.F.F.F.F.F.F.F.F.F.F.F.F.F.",
"J.J.J.F.F.F.F.F.A.A.A.A.F.F.F.4.d d D H H F F g.E.E.E.E.H w w V ` ` ` ` ] 0.0.8XrX8X=X=X@XF.F.F.F.F.F.F.F.F.F.F.F.F.F.F.F.F.F.F.",
"F.F.F.F.F.F.C.C.Z.Z.Z.Z.C.F.F.;.    W.wXqX5X5X5X5X5X5X5XE.    < i i i i x 7 t 7XeXeXeXeX+XF.F.F.F.F.F.F.F.F.F.F.F.F.F.F.F.F.F.F.",
"F.F.F.F.F.F.F.F.C.C.C.Z.Z.Z.A.;.    W.qX9X5X5X5X5X5X4X1XE.X X 1 i i i i x m m 7XeXeXeXeX+XF.F.F.F.F.F.F.F.F.F.F.F.F.F.F.F.F.F.F.",
"F.F.F.F.F.F.F.F.F.C.Z.Z.Z.Z.A.;.    u S g.9XqX0X5X4Xz > v ).).>X4X>Xc i G Q.Q.,X:X2XT.T.P.F.F.F.F.F.F.F.F.F.F.F.F.F.F.F.F.F.F.F.",
"F.F.F.F.F.F.F.F.F.F.Z.Z.Z.Z.G.-.    < i S qXwX9X5X4X>   z 5X5X9XwX5Xc i g.-X-X-X-X(.F.F.F.F.F.F.F.F.F.F.F.F.F.F.F.F.F.F.F.F.F.F.",
"F.F.F.F.F.F.F.F.F.F.Z.A.Z.G.H.-.    < i S qXwX9X5X4X>   2 ^.^.,X3X,Xs.s.s.g.g.;X1X2XY.Y.I.F.F.F.F.F.F.F.F.F.F.F.F.F.F.F.F.F.F.F.",
"F.F.F.F.F.F.F.F.F.F.C.A.G.G.H.-.    < i S qXwX9X5X4X>   + i i h.R.R.R.R.j     _.eX9X-X-XY.F.F.F.F.F.F.F.F.F.F.F.F.F.F.F.F.F.F.F.",
"F.F.F.F.F.F.F.F.F.F.F.A.A.G.G.-.    < i S qXwX9X5X4X>   + i i h.R.R.R.R.j     _.eX9X-X-XY.J.J.J.F.F.F.F.F.F.F.F.F.F.F.F.F.F.F.F.",
"F.F.F.F.F.F.F.F.F.F.F.F.A.A.A.-.    F ^.).wXwX9X5X4X>   + y y h.R.R.R.R.j     ).wX>Xe e 1.F.F.K.K.F.F.F.F.F.F.F.F.F.F.F.F.F.F.F.",
"F.F.F.F.F.F.F.F.F.F.F.F.F.C.Z.=.    E.5X5XwXwX9X5X4X>   + y y h.R.R.R.R.j     ).wX).    *.F.F.F.F.F.F.F.F.F.F.F.F.F.F.F.F.F.F.F.",
"F.F.F.F.F.F.F.F.F.F.F.F.F.F.F.>.& & H ).>XqXqX4X).).1 o ; y y f.j.j.j.j.A # # W.4XW.% % ;.F.F.F.F.F.F.F.F.F.F.F.F.F.F.F.F.F.F.F.",
"F.F.F.F.F.F.F.F.F.F.F.F.F.F.F.C.4.4.9 @ 2 4X5XG @ o h k k y y U R R R R { e.e.5 o 0 V.V.A.F.F.F.F.F.F.F.F.F.F.F.F.F.F.F.F.F.F.F.",
"F.F.F.F.F.F.F.F.F.F.F.F.F.F.F.F.F.F.9   > 4X5XF     h p.k i i U Y Y Y Y &.y.y.-   8 F.F.F.F.F.F.F.F.F.F.F.F.F.F.F.F.F.F.F.F.F.F.",
"F.F.F.F.F.F.F.F.F.F.F.F.F.F.F.F.F.F.;.a s G G 2     g k h i i t I / %.%.r.y.y.5 ; a F.F.F.F.F.F.F.F.F.F.F.F.F.F.F.F.F.F.F.F.F.F.",
"F.F.F.F.F.F.F.F.F.F.F.F.F.F.F.F.F.F.F.F.4.X         1 i i i i n m Q %X*X}.y.t.B i l F.F.F.F.F.F.F.Z.Z.F.F.F.F.F.F.C.C.F.F.F.F.F.",
"F.F.F.F.F.F.F.F.F.F.F.F.F.F.F.F.F.F.F.F.4.X         1 i i i i n m Q %X*X}.y.y.B i l F.F.F.F.F.F.A.A.A.A.F.F.F.F.F.A.A.A.F.F.F.F.",
"F.F.F.F.F.F.F.F.F.F.F.F.F.F.F.F.F.F.F.F.A.<.<.q     g k k k k A A A d.d.b - - 1.M.n.F.F.F.F.F.A.A.Z.G.A.J.F.F.J.H.G.G.A.A.F.F.F.",
"F.F.F.F.F.F.F.F.F.F.F.F.F.F.F.F.F.F.F.F.F.F.F.d     h p.p.p.p.a.a.a.p.p.r     <.F.F.F.F.F.F.Z.A.Z.G.G.H.J.J.F.J.H.G.G.G.A.C.C.C.",
"F.F.F.F.F.F.F.F.F.F.F.F.F.F.F.F.F.F.F.F.F.F.F.>.8 8 p g g g g g g g g g p 8 8 4.F.F.F.F.F.F.C.A.G.G.G.H.J.F.F.J.H.H.G.G.A.C.C.Z.",
"F.F.F.F.F.F.F.F.F.F.F.F.F.F.F.F.F.F.F.F.F.F.F.F.F.F.*                   a F.F.F.F.F.F.F.F.F.F.A.A.G.G.A.F.F.F.F.A.G.G.A.A.F.F.F.",
"F.F.F.F.F.F.F.F.F.F.F.F.F.F.F.F.F.F.F.F.F.F.F.F.J.F.*                   a F.F.F.F.F.F.F.F.F.F.F.A.A.A.A.C.F.F.F.A.A.A.A.F.F.F.F.",
"F.F.F.F.F.F.F.F.F.F.F.F.F.F.F.F.F.F.F.F.F.F.F.F.J.F.,.=.=.=.=.=.=.=.=.=.<.F.F.F.F.F.F.F.F.F.F.F.F.C.Z.Z.C.C.F.C.Z.Z.C.F.F.F.F.F.",
"F.F.F.F.F.F.F.F.F.F.F.F.F.F.F.F.F.F.F.F.F.F.F.F.J.J.J.F.F.F.F.F.F.F.F.F.F.F.F.F.F.F.F.F.F.F.F.F.F.F.C.C.C.C.C.C.C.C.F.F.F.F.F.F.",
"F.F.F.F.F.F.F.F.F.F.F.F.F.F.F.F.F.F.F.F.F.F.F.F.J.J.F.F.F.F.F.F.F.F.F.F.F.F.F.F.F.F.F.F.F.F.F.F.F.F.C.C.C.C.C.C.C.C.F.F.F.F.F.F."
};
