/* XPM */
static char *_4bdd61dceff44308b8222724eff39a5ReSmJ7IJus4AdYSA[] = {
/* columns rows colors chars-per-pixel */
"64 64 237 2 ",
"   c #010201",
".  c #070908",
"X  c #140B0B",
"o  c #0B1D14",
"O  c #181615",
"+  c #0D130E",
"@  c #261615",
"#  c #2F1718",
"$  c #0F2E1B",
"%  c #0B2115",
"&  c #12321E",
"*  c #132E1B",
"=  c #121C27",
"-  c #0E1F22",
";  c #163823",
":  c #18232B",
">  c #242329",
",  c #362727",
"<  c #212730",
"1  c #252B36",
"2  c #2D3330",
"3  c #2B2320",
"4  c #48171D",
"5  c #531B22",
"6  c #442725",
"7  c #5A3431",
"8  c #503031",
"9  c #673838",
"0  c #672F36",
"q  c #1C5734",
"w  c #184A2E",
"e  c #24593A",
"r  c #23663D",
"t  c #1E633A",
"y  c #4D433A",
"u  c #5B4533",
"i  c #634736",
"p  c #6D4A3D",
"a  c #1D3744",
"s  c #26384B",
"d  c #373B47",
"f  c #233A57",
"g  c #303B5E",
"h  c #263862",
"j  c #473F4F",
"k  c #773C49",
"l  c #623D4D",
"z  c #1F4249",
"x  c #3A414B",
"c  c #26435C",
"v  c #394050",
"b  c #384759",
"n  c #214C46",
"m  c #277946",
"M  c #2F6E4B",
"N  c #2D4D6C",
"B  c #39516A",
"V  c #3A5778",
"C  c #354E69",
"Z  c #43434E",
"A  c #5A4146",
"S  c #594856",
"D  c #4D4B57",
"F  c #674245",
"G  c #794141",
"H  c #774644",
"J  c #695857",
"K  c #6D4F4D",
"L  c #49704C",
"P  c #796658",
"I  c #6D6D54",
"U  c #4D5465",
"Y  c #565765",
"T  c #495978",
"R  c #495268",
"E  c #70516B",
"W  c #5C6973",
"Q  c #706A71",
"!  c #922D3A",
"~  c #8B3C49",
"^  c #9A3B47",
"/  c #8F3F53",
"(  c #AA3847",
")  c #B83348",
"_  c #B93949",
"`  c #B33949",
"'  c #AD3D52",
"]  c #854B4A",
"[  c #89554C",
"{  c #8B445A",
"}  c #975054",
"|  c #B1454D",
" . c #BE4252",
".. c #B84758",
"X. c #A75357",
"o. c #A94C58",
"O. c #9A6557",
"+. c #8C6953",
"@. c #A9795E",
"#. c #A46B58",
"$. c #895267",
"%. c #BB5864",
"&. c #AF5A64",
"*. c #91736B",
"=. c #B06F68",
"-. c #C14555",
";. c #C44A5A",
":. c #C04B56",
">. c #CA525E",
",. c #CA5363",
"<. c #CD5A69",
"1. c #C65A67",
"2. c #D05D6D",
"3. c #D05B66",
"4. c #D5656E",
"5. c #C66171",
"6. c #D46373",
"7. c #D86776",
"8. c #D86875",
"9. c #D86878",
"0. c #D56D7D",
"q. c #C96066",
"w. c #2A864E",
"e. c #2C8D52",
"r. c #329959",
"t. c #2F8D53",
"y. c #32A45E",
"u. c #38AD65",
"i. c #35A762",
"p. c #3AB569",
"a. c #39BA73",
"s. c #4BB674",
"d. c #54AA6E",
"f. c #6BBB7A",
"g. c #73B275",
"h. c #70BC79",
"j. c #75A873",
"k. c #55956C",
"l. c #3CC372",
"z. c #46C677",
"x. c #44D87D",
"c. c #56CB7C",
"v. c #8B8C6C",
"b. c #BA8866",
"n. c #AF8368",
"m. c #AB855F",
"M. c #C9916E",
"N. c #CA9573",
"B. c #D49C76",
"V. c #C78A71",
"C. c #D9A17A",
"Z. c #D8A378",
"A. c #385B85",
"S. c #386188",
"D. c #3A6584",
"F. c #3B6693",
"G. c #475B84",
"H. c #475F95",
"J. c #4C638E",
"K. c #747289",
"L. c #4869A7",
"P. c #4D73BC",
"I. c #5478C9",
"U. c #547CD6",
"Y. c #4E71C5",
"T. c #917A93",
"R. c #A96E89",
"E. c #D17788",
"W. c #46DD82",
"Q. c #54D083",
"!. c #69CC88",
"~. c #49E283",
"^. c #47EE87",
"/. c #4CE986",
"(. c #47EE8A",
"). c #49EE8C",
"_. c #45E383",
"`. c #54ED8B",
"'. c #59E387",
"]. c #4EF68E",
"[. c #51F38D",
"{. c #47EA91",
"}. c #49EC92",
"|. c #4CF291",
" X c #53F692",
".X c #59F796",
"XX c #5EF799",
"oX c #5AEB92",
"OX c #66F79E",
"+X c #66F79E",
"@X c #64E696",
"#X c #6487DF",
"$X c #5882E2",
"%X c #5F84D5",
"&X c #6783AE",
"*X c #8C8793",
"=X c #A8948C",
"-X c #9593AD",
";X c #AB9ABE",
":X c #BF8EA5",
">X c #A5A5BA",
",X c #AAA2A7",
"<X c #CB8E8D",
"1X c #D4A78B",
"2X c #E3B18E",
"3X c #E7B899",
"4X c #CB92A6",
"5X c #D7A9B8",
"6X c #CFB7B0",
"7X c #D2AFAD",
"8X c #E8B5AB",
"9X c #E0978E",
"0X c #ECC3AA",
"qX c #F2C6AD",
"wX c #F4CCB4",
"eX c #F4C5B0",
"rX c #F8D0B8",
"tX c #F7D1BB",
"yX c #EEC8B1",
"uX c #DAC3BC",
"iX c #A59CC2",
"pX c #99A8D5",
"aX c #AAA3C8",
"sX c #B4B3CE",
"dX c #96A8DA",
"fX c #CFB7C8",
"gX c #E2B6C6",
"hX c #CACADA",
"jX c #C7C4D3",
"kX c #DFC6D6",
"lX c #E8D0CF",
"zX c #DAD8E8",
"xX c #D5D2E9",
"cX c #E4DAE7",
"vX c #E8E8F8",
"bX c #E5E4F4",
"nX c #E7E3EF",
/* pixels */
"].].].].].].].].].].].].].].].].].].].].].].].].].].].].].].].].].].].].].].].].].].].].].].].].].].].].].].].].].].].].].].].].",
"].].].].].].].].].].].].].].].].].].].].].[.`.`.`.`.`.`.`.`.`.`././././.`.`.[.[.].].].].].].].].].].].].].].].].].].].].].].].].",
"].].].].].].].].].].].].].].].].].].].].'.f.g.g.g.g.g.g.g.g.g.g.g.g.g.g.g.g.f.'.].].].].].].].].].].].].].].].].].].].].].].].].",
"].].].].].].].].].].].].].].].].].].].].h.O.| | | | | | | | | | | | | | | | X.h.].].].].].].].].].].].].].].].].].].].].].].].].",
"].].].].].].].].].].].].].].].[.`.`.`.`.g.X._ _ _ _ _ _ _ _ _ _ _ _ _ _ _ _ X.g.`.`.`.`.[.].].].].].].].].].].].].].].].].].].].",
"].].].].].].].].].].].].].].].f.*.O.O.O.&.1.2.2.2.2.2.2.2.2.2.2.2.2.2.2.2.2.1.&.O.O.O.O.h.`.].].].].].].].].].].].].].].].].].].",
"].].].].].].].].].].].].].].].j.X._ _ _ ;.6.9.9.9.9.9.9.9.9.9.9.9.9.9.9.9.9.6.;._ _ _ | j.'.].].].].].].].].].].].].].].].].].].",
"].].].].].].].].].].].].`.c.c.v.&.-.-.-.,.6.7.7.9.9.9.9.9.9.9.7.7.7.9.9.9.9.6.,.-.-.-...v.f.c.).].].].].].].].].].].].].].].].].",
"].].].].].].].].].].].].Q.k.I O.1.2.2.2.6.8.8.7.9.9.9.9.9.9.7.7.8.8.9.9.9.9.6.6.2.2.4.3.O.P I ~.].].].].].].].].].].].].].].].].",
"].].].].].].].].].].].].c.I G } 5.7.9.7.7.8.4.8.7.7.7.7.7.7.7.8.4.8.7.7.7.7.7.9.9.7.8.4.} G K c.].].].].].].].].].].].].].].].].",
"].].].]. X X X X X Xz.e.L +.X.%.6.9.7.7.4.,.>.,.,.,.,.,.,.,.,.,.>.>.,.,.,.,.,.6.9.7.7.8.%.X.} M w.a./.].].^.^.].].].].].].].].].",
".X.X.X.X.X.X.X.X.X.Xt.  # X.9.9.9.9.7.7.<. ._ _ _ _ _ _ _ _ _ _ _ _ _ _ _ _ _ <.9.9.9.9.9.9.1.@   m W.].).).).).].].].].].].].].",
"XXXXXXXXXXXXXXoXc.z.M @ 5 o.2.2.2.2.2.2.,.-. . . . . . . . . . . . . . . . .-.,.2.2.2.2.2.2.1.4 @ r p.l.W.}.{.).).].].].].].].].",
"OXOXOXOXOXOX+Xc.r ; 8 ! ! ` -. .-.-.-.-.;.<.2.2.2.2.2.2.2.2.2.2.2.2.2.2.2.2.<.;.-.-.-.-.-.-. .! ! 8 ; ; a.{.{.{.).^.].].].].].].",
"OXOXOXOXOXOX+Xs.&   5 _ _ _ _ _ _ _ _ _ ;.6.9.9.9.9.9.9.9.9.9.9.9.9.9.9.9.9.6.;._ _ _ _ _ _ _ _ ` 5 X   i.}.{.{.).(.].].].]. X X",
"OXOXOXOXOXOX+Xs.&   5 ;.,.E.E.5. ._ -.;.,.6.9.9.9.9.9.9.9.9.9.9.9.9.9.9.9.9.6.,.;. ._ _ 5.E.E.,...0 X   i.).{.).).].].]. X X.X.X",
"OXOXOXOXOXOX+Xs.;   0 6.E.gXcX4X.._ ,.6.6.6.9.7.7.9.9.9.9.9.9.9.9.9.9.9.9.9.6.6.6.,._ _ 4XkXkXE.<.0 X   i.).).).].].]. X.XXXXXXX",
"OXOXOXOXOXOX+Xs.;   0 9.<XkXvX5X%._ <.9.9.9.9.7.9.7.9.9.9.9.9.9.9.9.9.9.7.9.9.9.9.,._  .5XcXcXE.6.9 X   y.(.^.].].]. X.XXX+XOXOX",
"OXOXOXOXOXOX+Xs.&   S 5XfXcXvXgX0.<.6.9.7.7.8.7.9.9.9.9.9.9.7.7.8.7.9.9.7.9.9.9.9.6.3.4.5XcXnXfX5XJ X   y.^.].].]. X X.XXXOXOXOX",
"OXOXOXOXOXOX+Xs.&   Y hXhXzXvXgXE.9.9.9.7.8.8.7.9.9.9.9.9.9.7.8.8.8.9.9.9.9.9.9.9.7.8.9.5XcXvXhXjXW O   i. X X X X.X.XXX+XOXOXOX",
"OXOXOXOXOXOX+XQ.M e W -X>XhXzXgXE.9.9.9.7.7.8.7.9.9.9.9.9.9.7.7.8.7.9.9.9.9.9.9.9.7.8.0.5XzXxX>X-XW e e z..X.XXXXXXXXX+XOXOXOXOX",
"OXOXOXOXOXOXOX@XQ.Q.k.U Q >XhX5XE.9.9.9.9.7.7.7.9.9.9.9.9.9.9.7.7.7.9.9.9.9.9.9.9.7.7.0.5XhXjXW U k.Q.Q.oX+X+X+XOXOX+XOXOXOXOXOX",
"OXOXOXOXOXOXOXOXOXOXd.d Y >XhX5XE.9.9.9.9.9.9.9.9.9.9.9.9.9.9.9.9.9.9.9.9.9.9.9.9.9.9.0.5XjXsXU v k.@XOXOXOXOXOXOXOXOXOXOXOXOXOX",
"OXOXOXOXOXOXOX@Xg.j.L : x -XsX4X5.,.,.,.<.6.9.9.9.9.9.9.9.9.9.9.9.9.9.9.9.9.6.<.,.,.,.,.4XsX>Xd < L k.j.@XOXOXOXOXOXOXOXOXOXOXOX",
"OXOXOXOXOXOX+X!.P p 6   > K.aXR..._ _ _ ;.6.9.7.9.9.9.9.9.9.9.9.9.9.9.9.9.9.6.;._ _ _ ` R.;X-X=   , 9 H f.OXOXOXOXOXOXOXOXOXOXOX",
"OXOXOXOXOXOX+X!.J 9 6 O 2 K.-XR..._ _ _ -.<.6.6.9.9.9.9.9.9.9.9.9.9.9.9.6.6.<.-._ _ _ ` R.-XT., @ 6 7 9 f.+XOXOXOXOXOXOXOXOXOXOX",
"OXOXOXOX+X+X+Xs.2 X u m.+.8 > 0 ( _ _ _ _ _  .,.9.9.9.9.9.9.9.9.9.9.9.9.,.-. ._ _ _ _ ` 0 > , O.@.i @ O s.+XOXOXOXOXOXOXOXOXOXOX",
"XXXXXXXXXX.XoXs.&   i Z.m.,   4 ! _ _ _ _ _ _ >.9.9.9.9.9.9.9.9.9.7.9.9.,._ _ _ _ _ _ ( 4 . O b.B.p X   u.XXXX+X+XOXOX+X+XXXXXXX",
".X.X.X X X X`.p.*   i Z.b.7 # 8 k ~ ^ ^ ( ` _ -.,.,.,.,.,.,.,.,.,.,.,.,.-._ _ ( ^ ^ ~ k 8 # 6 b.B.p X   u..X.XXX+XOXOX+XXX.X.X.X",
" X X].].].]./.u.$   i B.M.[ p A Z v l k ~ ( ) _ _ _ _ _ _ _ _ ) ) ) _ _ _ _ ` ~ G A d d A G ] M.B.p X   i. X X.XXXOX+XXX.X X X X",
"].].].].].].^.p.w o u M.@.[ p F D D F k ~ ' ' ' ( ( ` ` ` ` ` ` ` ( ( ( ' ..| ] G A Z Z F G H n.b.p * % u.]. X.XXX+X+XXX.X X].].",
"].].].].].].].x.r.w.L u i p p [ *.*.K j E R.R.$.k k ~ ^ ^ ^ ^ ^ ^ ~ k k $.R.R.E A J *.*.[ H p i u L w.e.x.]. X X.XXXXX.X X X].].",
"].].].].].].].].].^.w.  X 7 G O.N.B.J v W -XaXK.v Z F p G G G G G F v v K.iX-XW v P N.B.#.H 9 X   m x.].].].|. X X.X.X X X X].].",
"^.^.].].].].].].].^.r.$ ; 8 7 [ M.C.P S K.>XsXK.1 d H [ [ [ [ [ [ H d 1 K.aX>XK.S *.N.B.+.9 7 ; & e.x.].].].]. X X X X X].].].].",
"(.(.(.].].].].].].(.^._.p.;   u b.C.B.B.7XcXvXK.  @ m.B.B.B.B.B.B.@..   Q zXcX7XB.B.B.N.u X o a._.^.].].].].].].].].].].].].].].",
"(.(.).).].].].].).).).).l.;   7 b.C.C.C.8XcXvXK.  @ n.C.C.C.C.C.C.@..   Q zXcX8XC.C.C.N.u X o l.).].].].].].].].].].].].].].].].",
"{.{.}.}.|.|.].|.}.{.{.}.W.r.m L O.@.M.C.3XlXlX,XP *.1X3X3X3X3X3X3X1XP P ,XlXlX3XC.V.@.#.L m w.W.].].].].].].].].].].].].].].].].",
"{.{.}.}.|.|.|.|.}.}.}.}.)././.d.K G b.C.2XeXtXwXyXyXwXwXwXwXwXwXwXwXyXyXwXtXeX2XC.@.] H k.x._.^.].].].].].].].].].].].].].].^.^.",
"{.{.}.}.|.].].|.}.}.}.}.|.].].d.K 9 @.M.1X0XqXwXrXrXrXrXwXqXqXwXrXrXrXrXwXqX0X1XM.#.9 9 d.~.].].].].].].].].].].].].].].].].].^.",
"}.}.}.|.].].].].).{.{.).).].].i.2 @ p O.@.C.2X3XrXrXrXrX0X2X2X0XrXrXrXrX0X2X1X=.O.p # 3 r.~.].].].].].].].].].].].].].].].].].].",
"|.|.|.].].].].].).).).).].].].r.%   8 G O.M.Z.2XrXrXrXrX3XC.1X3XrXrXtXtX3XC.M.O.G 6 . . e._.].].].].].].].].].].].].].].].].].].",
"].].].].].].^.^.^.(.(.(.x.y.e.M c f Q *.*.+.[ @.<X<X3X3X2XC.C.2X3X3X<X<X@.[ +.*.*.E g f M t.r./.].].].].].].].].].].].].].].].].",
"].].].].].].].].^.^.^.(.l.w o f L.I.iXsX*X, X 8 ] } N.C.C.C.C.C.C.N.[ ] 8 O , *XfXpXI.P.f % & x.].].].].].].].].].].].].].].].].",
"].].].].].].].].].^.^._.p.; . f Y.$XpXhX*X>   , H [ N.C.C.C.C.C.C.V.H H , . > *XhXdX#XU.h + o z.^.].].]. X].].].].].].].].].].].",
"].].].].].].].].].^.u.t q z s A.I.$XpXhX-Xx < S T.*X6XlXuX6X6X6X6X7XT.T.Y 1 d *XhXdX#XU.A.f s t r u./.].].].].].].].].].].].].].",
"].].].].].].].].].^.e.. - N V L.U.$XpXhX-XU d K.iXaXzXnXzXjXjXjXjXfXiX;XK.v U -XhXdX#XU.L.A.N o + w.~.].].].].].].].].].].].].].",
"].].].].].].].)./.x.w.O > C G.L.I.U.pXsX-XT b K.aXsXzXvXzXjXjXjXfXfX;X;XK.R T -XsXpX%XU.L.G.T > O M z.W.^.].].].].].].].].].].].",
"].].].].].].].c.I K v.7X<X&.' E J.F.T U J.Y.U.dXzXzXvXvXxXaXaX4XE.R.U R J.I.P.J.U T F.H.E } o.<X1XI ; $ p.].].].].].].].].].].].",
"].].].].].].].c.I G n.rX3Xq._ { T A.b v G.I.$XdXbXbXvXvXxXaX;X<X9.&.v v H.U.I.G.v B D.D.$.' :.8XwXP O   i.].].].].].].].].].].].",
"].].].].].].].s.y , *.rXqX9X<X*.U B S k E L.P.&X-X>XzXvXxXaX;X<X8.&.v v G.L.L.E k S B B *.V.9XeXwXP O   y.].].].].].].].].].].].",
"].].].].].].].p.; . P rXwXeXqX=XY v ~ ( { G.F.V R W hXvXxXiX;X<X8.%.v v B S.G.{ ( k x b =X8XqXwXeXP O   y.].].].].].].].].].].].",
"].].].].].].].p.& . J wXwXwXwX=XU d ~ _ { T A.B d Y jXbXhXiX;XE.4.%.Z v B A.T { _ k d x =X0XwXwXyXP O . y.].].].].].].].].].].].",
"].].].].].].].~.p.i.L y y y y 2 O O 8 l F { { { ~ } =.E.=.$.$.X.-. .~ ~ / { { F l 8 O O 2 8 y y y M r.y.x.].].].].].].].].].].].",
"].].].].].].].].].].w.              1 v l ( _ _ _ _ _ _ ^ G k ^ _ _ _ _ _ _ ( l v < .             m x.].].].].].].].].].].].].].",
"].].].].].].].].].].y.& & & & % .   s b S ~ ^ ^ ^ ^ ^ ^ ~ F k ~ ^ ^ ^ ^ ^ ^ ~ S b 1 .   o & & $ ; e.x.].].].].].].^.^.].].].].].",
"].].].].].].].].].]./.x.x.x.x.w.o   c A.V D Z j Z Z Z j j Z Z j j j j j j j D V A.s . . m l.x.x.x.W.(.).].].].].].).).).].].].].",
"].].].].].].].].].].].].].].].r.%   N S.V b d v v v v v v v v v v v v v v v b V S.f . . e.~.].).).{.}.|.|.].].|.}.{.{.).).].].].",
"].].].].].].].].].].].].].].].r.%   c S.V B C s < < < < < < < < < < < < s C B V S.f . . e.~.(.).{.{.}.}.|.|.|.|.}.{.{.{.).^.^.(.",
"].].].].].].].].].].].].].].].r.%   c S.S.D.D.a                         a A.S.S.S.f . . e.~.^.).{.{.}.}.|.].].|.}.}.{.{.).^.^.^.",
"].].].].].].].].].].].].].].].i.w $ c N N N N z $ $ $ $ $ $ $ $ $ $ $ $ a N N N N z ; ; y._.].).).{.{.).].].].).).{.{.).).].].].",
"].].].].].].].].].].].].].].].W.p.u.w = = = = M u.u.u.u.u.u.u.u.u.u.u.u.M : = = = n r.u.x.].].].).).).).].].].].).).).).].].].].",
"].].].].].].].].].].].].].].].].].].w         m ].].].].].].].].].].].].m .       t x.].].].].].].^.(.(.^.^.^.(.(.(.^.].].].].].",
"].].].].].].].].].].].].].].].].].].w.q q q q y.].].].].].].].].].].].].i.q q q q r./.].].].].].].].^.^.^.^.^.^.^.^.].].].].].].",
"].].].].].].].].].].].].].].].].].]./.~.~.~.~.).].].].].].].].].].].].]./.~.~.~.~./.].].].].].].].].^.^.^.^.^.^.^.^.].].].].].]."
};
