/* XPM */
static char *_b18239b7f3540b2e6edf0261b8b6dfadn0oAsT37OSKDiRF[] = {
/* columns rows colors chars-per-pixel */
"64 64 201 2 ",
"   c #343524",
".  c #333B27",
"X  c #3B3825",
"o  c #373A28",
"O  c #37412C",
"+  c #3A412D",
"@  c #354A2F",
"#  c #3C4631",
"$  c #3C4C34",
"%  c #3D5233",
"&  c #395838",
"*  c #3B623E",
"=  c #4E462D",
"-  c #47452D",
";  c #514B2F",
":  c #404A35",
">  c #494730",
",  c #584D31",
"<  c #415436",
"1  c #425C35",
"2  c #44543C",
"3  c #435B3C",
"4  c #485C3E",
"5  c #48573F",
"6  c #5D5134",
"7  c #715E3B",
"8  c #685737",
"9  c #446335",
"0  c #476D36",
"q  c #47623C",
"w  c #4A643E",
"e  c #4D6B3E",
"r  c #456D39",
"t  c #487136",
"y  c #4E753C",
"u  c #4F7C3B",
"i  c #4B7A37",
"p  c #517B37",
"a  c #51773F",
"s  c #517B3D",
"d  c #516F34",
"f  c #77623D",
"g  c #7D663F",
"h  c #3D6B43",
"j  c #3F6240",
"k  c #3B7247",
"l  c #3B7C4B",
"z  c #3D774B",
"x  c #475F43",
"c  c #495A41",
"v  c #485740",
"b  c #4C6341",
"n  c #4E6A41",
"m  c #4A6C4A",
"M  c #446746",
"N  c #506E41",
"B  c #43724A",
"V  c #487648",
"C  c #517141",
"Z  c #557B42",
"A  c #587848",
"S  c #4B7E53",
"D  c #5E7E50",
"F  c #5E6B53",
"G  c #7B6840",
"H  c #667A5B",
"J  c #816A41",
"K  c #4E8238",
"L  c #4E8333",
"P  c #528B36",
"I  c #51833B",
"U  c #518939",
"Y  c #5B8C3C",
"T  c #55863A",
"R  c #539435",
"E  c #559B33",
"W  c #5C983B",
"Q  c #619A3C",
"!  c #62903D",
"~  c #57A72F",
"^  c #56A330",
"/  c #5AA533",
"(  c #5AAA30",
")  c #63A43C",
"_  c #67AC3B",
"`  c #64B435",
"'  c #6CB53C",
"]  c #6BBB3A",
"[  c #68B837",
"{  c #71BA3F",
"}  c #76C63F",
"|  c #78C83F",
" . c #3B834F",
".. c #3C8651",
"X. c #398951",
"o. c #3B9558",
"O. c #3DA15F",
"+. c #3EA360",
"@. c #4A8A47",
"#. c #5A8341",
"$. c #5C8B43",
"%. c #4D904F",
"&. c #5D9242",
"*. c #4A8354",
"=. c #428A53",
"-. c #498954",
";. c #518B59",
":. c #47955D",
">. c #659848",
",. c #65825A",
"<. c #699655",
"1. c #618E46",
"2. c #69A740",
"3. c #69A348",
"4. c #74B947",
"5. c #75A859",
"6. c #7BB95A",
"7. c #6EB146",
"8. c #4B9C62",
"9. c #519362",
"0. c #749668",
"q. c #729165",
"w. c #718F66",
"e. c #45AA65",
"r. c #48A966",
"t. c #43B369",
"y. c #44B66B",
"u. c #4CBC72",
"i. c #4BB771",
"p. c #58BB79",
"a. c #76A666",
"s. c #7FAC72",
"d. c #7BCD41",
"f. c #7BC649",
"g. c #7DD042",
"h. c #45CB76",
"j. c #46CE78",
"k. c #4AC475",
"l. c #49D37B",
"z. c #46D97E",
"x. c #55C17A",
"c. c #809C7C",
"v. c #83B86B",
"b. c #88B17F",
"n. c #8CB87E",
"m. c #80AB6D",
"M. c #81D644",
"N. c #86DE47",
"B. c #86CB5B",
"V. c #8ECC6C",
"C. c #94CE74",
"Z. c #92C07F",
"A. c #5CC982",
"S. c #4BDD82",
"D. c #46D882",
"F. c #60D389",
"G. c #4CE384",
"H. c #47EF87",
"J. c #4AE987",
"K. c #47EE8A",
"L. c #49EE8C",
"P. c #47E78B",
"I. c #53E68A",
"U. c #4DF58D",
"Y. c #4EF68E",
"T. c #4FF78F",
"R. c #4FF68F",
"E. c #4EF58E",
"W. c #4DF58D",
"Q. c #50F68F",
"!. c #47EB90",
"~. c #49EC92",
"^. c #5EE591",
"/. c #4CF290",
"(. c #50F790",
"). c #53F792",
"_. c #52F691",
"`. c #57F795",
"'. c #54F692",
"]. c #5BF696",
"[. c #5FF799",
"{. c #5CF798",
"}. c #5EF799",
"|. c #62E392",
" X c #63EA96",
".X c #64F79D",
"XX c #67F79F",
"oX c #66F79E",
"OX c #8AA981",
"+X c #95B88B",
"@X c #97C784",
"#X c #9ED189",
"$X c #9DD086",
"%X c #A4D294",
"&X c #A3CB9A",
"*X c #AACAA8",
"=X c #A8CAA5",
"-X c #AED3A9",
";X c #AED5A6",
":X c #B1D6AC",
">X c #B7D7B6",
/* pixels */
"T.T.T.T.T.T.T.T.T.T.T.T.T.T.T.T.T.T.T.T.Q.Q.T.T.T.T.T.T.T.T.y.# # t.U.U.T.T.T.T.T.T.T.T.T.T.T.T.T.T.T.T.T.T.T.T.T.T.T.T.T.T.T.T.",
"T.T.T.T.T.T.T.T.T.T.T.T.T.T.T.T.T.T.T.T.Q.Q.T.T.T.T.T.T.T.t.%.Q Q @.e.U.T.T.T.T.T.T.T.T.T.T.T.T.T.T.T.T.T.T.T.T.T.T.T.T.T.T.T.T.",
"T.T.T.T.T.T.T.T.T.T.T.T.T.T.T.T.T.T.T.T.Q.T.Q.T.T.T.T.T.T.=.p g.g.p =.E.T.T.T.T.T.T.T.T.T.T.T.T.T.T.T.T.T.T.T.T.T.T.T.T.T.T.T.T.",
"T.T.T.T.T.T.T.T.T.T.T.T.T.T.T.T.T.T.T.T.T.Q.Q.T.T.T.U.G.G.=.Y N.N.Y =.S.G.L.T.T.T.T.T.T.T.T.T.T.T.T.T.T.T.T.T.T.T.T.T.T.T.T.T.T.",
"T.T.T.T.T.T.T.T.T.T.T.T.T.T.T.T.T.T.T.T.T.T.T.T.T.T.k.m * W d.N.N.d.W * m k.U.T.T.T.T.T.T.T.T.T.U.U.U.U.T.T.T.T.T.T.T.T.T.T.T.T.",
"T.T.T.T.T.T.T.T.T.T.T.T.T.T.T.T.T.T.T.T.T.i.:.r.J.i.%.L % ) M.N.N.M.) $ t -.i.J.8.:.i.T.T.T.T.T.U.U.U.U.T.T.T.T.T.T.T.T.T.T.T.T.",
"T.T.T.T.T.T.T.T.T.T.T.T.T.T.T.T.T.T.T.U.k.S c M r.%.p P p 4.N.N.N.N.4.p y e -.r.M c S k.L.T.T.T.U.U.U.U.T.T.T.T.T.T.T.T.T.T.T.T.",
"T.T.T.T.T.T.T.T.T.T.T.T.T.T.T.Q.T.T.U.l.m x w w w P P w { M.N.N.N.N.M.{ w y u x x x x m l.L.T.T.U.U.U.U.T.T.T.T.T.T.T.T.T.T.T.T.",
"T.T.T.T.T.T.T.T.T.T.T.T.Q.Q.Q.Q.T.T.k.m c I E E E ^ L 1 { M.N.N.N.N.M.' 1 t I I I I y c m k.U.U.U.U.U.U.U.U.U.U.T.T.T.T.T.T.T.T.",
"(.(.(.(.(.(.(.(.(.(.(.(.(.(.(.I.r.:.S c c u E ~ ~ E R Q } M.N.N.N.N.M.} Q P U U U U y c c S :.8.J.T.T.U.U.U.U.U.U.T.T.T.T.T.T.T.",
"(.(.(.(.).).(.(.(.(.(.(.(.(.G.i.V e e e e y P ~ E R ) | | g.M.N.N.M.d.| | ) R U U u e b b b b m r.S.T.U.U.U.U.U.U.T.T.T.T.T.T.T.",
"`.`.`.`.`.`.`.`.`.`.`.`.`.`.p.x I U U U U e y ^ R E ` | | | d.N.N.d.| | | ` E U U e b C C C C N c u.T.U.L.L.L.L.U.U.U.T.T.T.T.T.",
"[.[.[.[.[..X[.[.[.[.[.[.[.[.p.x I U U U U e y ~ ^ ~ ` | | | | d.d.| | | | ` E U U e b C C C C N c i.T./.~.~.!.L.L.U.U.U.T.T.T.T.",
".X.X.X.X.X.X.X.X.X.X.X.X.Xp.S x I U U I e Y _ ] ( ~ ( [ | | ] ` ` } | | [ ( E U E R p n N C C N x S i./.~.!.!.!.L.K.U.U.T.T.(.T.",
".X.X.X.X.X.X.X.X.X.X.X.XA.;.e e P R U a #._ | } ( ~ ~ ( ] ] [ ` ` ] ] ] ( ~ E P ^ ~ R y n a a a n b *.u.P.!.!.!.L.K.U.U.T.Q.(.(.",
".X.X.X.XXXXXXX.X.X.X.X|.m y U R ^ ^ I n { | | ] / ~ ~ ~ ~ ( [ | | [ ( ~ ~ ^ E P ^ ~ ~ E w y I I a C n m S.!.!.L.L.U.U.E.(.).).`.",
"XXXXXX.XXXXXXXXXXXXX.X|.m y R ^ ~ R u n { | ] / R E ~ ~ ~ ] | | | | ] ~ ~ R U U P E ~ E w n s U I a n m D.L.L.L.U.E.T.(.`.[.[..X",
"XXXXXX.XXXXXXXXXXX.X.X.XA.;.u R R P I a #.W W E _ ' ` ~ ~ ] | | | | ] ^ R E E E U R P y n N C a a n *.u.J.K.U.U.E.T.(.`.[..X.X.X",
"XXXX.X.XXXXXXXXXXXXX.X.XA.;.y U U R R P y y T ) } | ] ~ ~ [ ] | | ] ` E U E ~ ^ R I e n a a a C C n *.u.J.E.E.E.Q.(.).`..X.X.X.X",
"XXXX.X.X.XXXXXXXXXXX.XF.m u U U P E ~ ^ P e #.| | } ' ^ ~ ~ ` } } ` E U U E ^ ~ ~ y b C I U I C C C n m l.I._.).).`.`.[..X.XXXXX",
"XXXXXX.X.X.X.XXXXXXXA.m I I U P ^ ~ ~ ^ P e #.| | [ ^ R ^ ~ ~ ( ( E U U U U R ~ ~ y b C I U U I C C C n m x.{.{.[.[..X.X.X.XXXXX",
"XXXX.X.X.X.X.X.XXXXXp.x I U U P ^ ~ ^ R U u a #.#.P R E ~ ~ ~ ~ ~ R U U U U I y y e n C a I U I C C C N x p..X.X.X.X.X.X.X.XXXXX",
"XXXX.X.XXXXXXXXXXXA.9.x y t i U E E R U U U u e e y P ~ ~ ~ E P P U U U U u e b b n C C C a I s C e w n c 9.A..X.X.X.X.X.X.X.X.X",
"XXXX.X.XXXXXXX.X|.*.< c 2 < 9 U U U U U U U U U U e y ~ ~ ^ I x x y I U U e b C C C C C C C A D D w < 2 c < *.|..X.X.X.X.X.X.X.X",
"XXXX.X.X.X.X.X|.B 3 c 2 $ 0 K U U U U U U U U U U e y ~ ~ u n N N n e U U e b C C C C C C s a.*X*Xw.q $ 2 c 3 B |..X.X.X.X.XXXXX",
".X.X.X.X.X.X.X|.& $ $ < 0 K U I e u U I s I U U U y e y y e n C C n n e e n n C s I a C C I a.>X>Xv.Y q < $ $ & |..X.X.X.X.X.X.X",
".X.X.X.X.X.X.X^.8.j # % K U I s n y I s a I U I I a n b e y a C C C n b b n C C I U I a C a <.@X#XB.2.e $ # j 8. X.XXX.X.X.X.X.X",
".X.X.X[.{.{.{.].^.*.$ % i K a N C C C C I U I I C C C a I U I C C C C C C C C C I I U I C C I / ' { Q e 1 3 ;.^..X.X.X.X.X.X.X.X",
"`.`.`.).'._._.G.B w e e % % < b I I y b I U u b N C a I U U I C C C C C C C C N b u U I b y U U Z q % 1 _ @XOXB ^..X.X.X[.`.`.`.",
"(.(.Q.E.E.E.h.=.w e C n 2 $ 1 u I U s n e e e n C C a U U I a C C C C C s Q 2.) s e e e n s U U I 1 % N @X;X=XOX;.A..X[.`.).(.(.",
"T.T.T.E.U.h.=.< n C N n c $ 9 U U I a N n e D 0.1.Z a I I a C C C C C C W 6.V.V.a.<.s e C a I U U 9 < A b.*X;X@Xx :.A.[.`.(.T.T.",
"U.U.E.E.U.:.3 5 n N n c c < 1 K K y n N C $.s.:XB.1.C C C C C C C C C Z { #X>X>X>XC.7.I C n y K K 1 $ x u b.@X' w 3 :.`.).(.T.T.",
"U.U.U.U.T.J.e.$ 5 c c c c c < % % $ < b I b.-X>X:X0.C C C C C C C C C Z { #X>X>X>X:Xn.I b < $ % % < c c x Z &.U % r.I.).(.T.T.T.",
"K.K.U.U.T.T.S.e.3 4 n n c c 2 < < < < < K 6.#X:XC.<.a I I a C C C C a I W 6.#X:XC.v.<.y < < < < < 2 w y y I i r e.S.(.(.T.T.T.T.",
"K.K.K.U.T.T.S.e.r t a N x c c c c c < % u Q 5.OX>.Y s U U a C C C C a U U ) 5.OX>.Y a e $ 2 c c c x a 2.a.3.U r e.S.(./.T.T.T.T.",
"L.L.L.L.E.J.e.% K U s n x c c c c c 2 $ e n n c 2 y U U U a C C C C a U U U y 2 c n e e $ 2 c c c n 1.B.:XC.4.$.9 r.J.T.T.T.T.U.",
"!.!.!.~./.:.3 4 I U u x c c c c c c c 2 $ $ < 2 $ t U U U e e I I e e U U U t $ 2 < $ $ 2 c c c c n 0.:X>X:X-X&X4.I :.T.U.U.U.U.",
"~.!.~.~./.l # c e e w c c c c c c c c c 2 < 2 2 # t U K 9 4 e U U e 4 9 K U t # 2 2 < 2 c c c c c y >.C.:X>X>X-Xf.d  .T.U.U.U.H.",
"~.~.~.~./.e.h : : 2 c c c x b b c c c c c c c c < 9 t 0 < < q U U q < < 0 t 9 < c c c c c c x n Z <.v.V.$X#X+Xc.! @.e.T.U.U.U.H.",
"~.~.~././.E.t.@ @ % 2 c x n C N x c x x c c c c c < # $ 2 < 9 K K 1 < 2 $ # < c c c c c c c n #.4.%X>X:XB.4.Y @ @ y.T.T.U.U.U.U.",
"/././.U.U.U.J.z.z.k + x u I s N c n N n c c c c c c 2 2 c c < % % < c c 2 2 c c c c c c c n $.4.%X>X>X>X:XH V S.S.L.T.T.T.T.T.T.",
"T.T.E.U.U.U.K.U.K. .# x I U a b n N C N c c c c c c c c c c 2 < < 2 c c c c c c c c c c c n &.f.-X>X>X>X>XH ..T.T.T.T.T.T.T.T.T.",
"T.T.T.E.U.U.U.J.t.k < x y y e x N C N n c c c c c c c c c c c c c c c c c c c c b b x c c b T 7.@X;X>X>X%X,.B y.L.T.T.T.T.T.T.T.",
"T.T.T.T.U.U.U.z.@ : c c c c c x n N n c c c c c c c c c c c c c x w w x c c c b Z Z C x x c e U ' @X:X-Xf.Z : @ S.T.T.T.T.T.T.T.",
"T.T.T.T.T.U.U.z.@ : c c c c c c x x c c c c c c c c c c c c c x u R R u x c b Z ' { >.N N b c n U 7.C.*X>.e : @ S.T.T.T.T.T.T.T.",
"T.T.T.T.T.T.T.J.t.h + + $ $ < c c c c c c c x n n x c c c c x C ) v.@Xb.A n ,.+X#X#X@XOX3.#.b c e Y 1.F < + h y.L.T.T.T.T.T.T.T.",
"T.T.T.T.T.T.T.E.U.e.l l ..& # c c c c c c w y a C b c c c c x C ) @X>X*XD #.m.>X>X>X>X:XC.<.n c c 9 r l l l e.T.T.T.T.Q.T.T.T.T.",
"T.T.T.T.T.T.T.T.T.U.U.L.L.z + c c c c c c y U I C b c c c c c x u b.*X+XD 2.V.>X>X>X>X>X:X0.n c c + l T.T.T.T.T.T.T.T.T.T.T.T.T.",
"T.T.T.T.T.T.T.T.T.T.U.U.K.z + c c c c c c y U I b c c c c c c c x A D D C 2.V.>X>X>X>X:XB.#.c c c + l T.U.U.U.U.T.T.T.T.T.T.T.T.",
"T.T.T.T.T.T.T.T.T.T.T.U.U.l o c c < # + 2 w e e c c c c < 2 c c c x 4 3 b #.5.C.:X#Xv.q.d 1 < c c + l T.U.U.U.U.U.T.T.T.T.T.T.T.",
"T.T.T.T.T.T.T.T.T.T.T.T.U.X.$ $ $ + .   # 2 c c c 2 < $ O < c c c c < O $ 3 a 3.OX5.Y <   . + : : $ X.T.U.U.U.U.U.T.T.T.T.T.T.T.",
"T.T.T.T.T.T.T.T.T.T.T.T.T.y.k . . . .     : c c 2 $ + X   $ c c c c :   X + $ 2 n b :     . . . . k y.T.U.U.U.U.U.U.T.T.T.T.T.T.",
"T.T.T.T.T.T.T.T.T.T.T.T.T.K.k.l l l h <   : c 2 o   ; G X O < c c < O X G ;   o 2 c :   < h l l l y.J.U.U.U.U.U.U.U.U.U.T.T.T.T.",
"T.T.T.T.T.T.T.T.T.T.T.T.T.T.j.X.X.X.z 5 : # + + - , 7 J 8 - # c c # - 8 J 7 , - + + # : v z X.X.X.h.U.U.U.T.T.U.U.U.U.U.U.T.T.T.",
"T.T.T.T.T.T.T.T.T.T.T.T.T.T.j.X.X.X.l M c : o   6 f J J J = o : : o = J J J f 6   o : c M l X.X.X.h.K.U.E.T.T.U.U.K.K.U.U.T.T.T.",
"T.T.T.T.T.T.T.T.T.T.T.T.T.T.l.o.X.X.X. .M c : X f J g f f =         = f f g J f X : c M  .X.X.X.o.j.L.L.E.T.T.U.L.L.L.L.U.U.U.U.",
"T.T.T.T.T.T.T.T.T.T.T.T.T.T.E.S.o.X.X.X. .M : X f J 8 X X : 2 2 2 2 : X X 8 J f X : M  .X.X.X.o.D.P.!.~./.T.T./.~.!.!.L.L.U.U.U.",
"T.T.T.T.T.T.T.T.T.T.T.T.T.T.T.E.l.+.X.X.X.l k * > = > : : 2 c c c c 2 : : > = > * k l X.X.X.O.j.P.!.!.~./.T.T./.~.!.!.!.L.U.K.H.",
"T.T.T.T.T.T.T.T.T.T.T.T.T.T.T.T.T.j.+.X.X.X.X. .& % & c c c c c c c c c c & % &  .X.X.X.X.O.h.L.!.!.!.~./.E.E./.~.!.!.!.L.U.K.K.",
"T.T.T.T.T.T.T.T.T.T.T.T.T.T.T.T.T.T.l.o.X.X.X.X.X.X.z x x x x x x x x x x z X.X.X.X.X.X.o.j.U.L.L.!.~.L.U.U.U.L.L.!.!.L.K.U.U.U.",
"T.T.T.T.T.T.T.T.T.T.T.T.T.T.T.T.T.T.E.S.o.X.X.X.X.X.X. . . . . . . . . . .X.X.X.X.X.X.o.z.K.U.U.L.L.L.K.U.U.U.K.K.L.L.L.U.U.U.T.",
"T.T.T.T.T.T.T.T.T.T.T.T.T.T.T.T.T.T.T.E.l.j.t.X.X.X.X.X.X.X.X.X.X.X.X.X.X.X.X.X.X.t.j.l.U.T.T.U.U.K.K.K.H.H.H.K.K.K.K.U.U.T.T.T.",
"T.T.T.T.T.T.T.T.T.T.T.T.T.T.T.T.T.T.T.T.T.T.S.t.t.t.+.X.X.X.X.X.X.X.X.X.X.+.t.t.t.S.T.T.T.T.T.T.U.U.K.K.H.H.H.H.K.K.U.U.U.T.T.T.",
"T.T.T.T.T.T.T.T.T.T.T.T.T.T.T.T.T.T.T.T.T.T.T.T.T.T.j.X.X.X.X.X.X.X.X.X.X.j.T.T.T.T.T.T.T.T.T.T.U.U.H.H.H.H.H.H.H.U.U.U.T.T.T.T."
};
